<svg width="68" height="12" viewBox="0 0 68 12" fill="none" xmlns="http://www.w3.org/2000/svg">
<path d="M6.87109 4.24609L7.00195 4.62109L7.39941 4.62988L10.0508 4.68262L7.9375 6.28613L7.62012 6.52637L7.73535 6.90723L8.50293 9.44531L6.32617 7.93066L6 7.7041L5.67383 7.93066L3.49609 9.44531L4.26465 6.90723L4.37988 6.52637L4.0625 6.28613L1.94824 4.68262L4.60059 4.62988L4.99805 4.62109L5.12891 4.24609L6 1.74023L6.87109 4.24609Z" fill="white" stroke="white" stroke-width="1.14286"/>
<path d="M20.8711 4.24609L21.002 4.62109L21.3994 4.62988L24.0508 4.68262L21.9375 6.28613L21.6201 6.52637L21.7354 6.90723L22.5029 9.44531L20.3262 7.93066L20 7.7041L19.6738 7.93066L17.4961 9.44531L18.2646 6.90723L18.3799 6.52637L18.0625 6.28613L15.9482 4.68262L18.6006 4.62988L18.998 4.62109L19.1289 4.24609L20 1.74023L20.8711 4.24609Z" fill="white" stroke="white" stroke-width="1.14286"/>
<path d="M34.8711 4.24609L35.002 4.62109L35.3994 4.62988L38.0508 4.68262L35.9375 6.28613L35.6201 6.52637L35.7354 6.90723L36.5029 9.44531L34.3262 7.93066L34 7.7041L33.6738 7.93066L31.4961 9.44531L32.2646 6.90723L32.3799 6.52637L32.0625 6.28613L29.9482 4.68262L32.6006 4.62988L32.998 4.62109L33.1289 4.24609L34 1.74023L34.8711 4.24609Z" fill="white" stroke="white" stroke-width="1.14286"/>
<path d="M48.8711 4.24609L49.002 4.62109L49.3994 4.62988L52.0508 4.68262L49.9375 6.28613L49.6201 6.52637L49.7354 6.90723L50.5029 9.44531L48.3262 7.93066L48 7.7041L47.6738 7.93066L45.4961 9.44531L46.2646 6.90723L46.3799 6.52637L46.0625 6.28613L43.9482 4.68262L46.6006 4.62988L46.998 4.62109L47.1289 4.24609L48 1.74023L48.8711 4.24609Z" fill="white" stroke="white" stroke-width="1.14286"/>
<path d="M62.8711 4.24609L63.002 4.62109L63.3994 4.62988L66.0508 4.68262L63.9375 6.28613L63.6201 6.52637L63.7354 6.90723L64.5029 9.44531L62.3262 7.93066L62 7.7041L61.6738 7.93066L59.4961 9.44531L60.2646 6.90723L60.3799 6.52637L60.0625 6.28613L57.9482 4.68262L60.6006 4.62988L60.998 4.62109L61.1289 4.24609L62 1.74023L62.8711 4.24609Z" fill="white" stroke="white" stroke-width="1.14286"/>
</svg>
