<svg width="88" height="16" viewBox="0 0 88 16" fill="none" xmlns="http://www.w3.org/2000/svg">
<path d="M9.34082 5.59863L9.47168 5.97461L9.86914 5.98242L13.9521 6.06543L10.6982 8.5332L10.3809 8.77344L10.4961 9.1543L11.6787 13.0635L8.32617 10.7314L8 10.5039L7.67383 10.7314L4.32031 13.0635L5.50391 9.1543L5.61914 8.77344L5.30176 8.5332L2.04688 6.06543L6.13086 5.98242L6.52832 5.97461L6.65918 5.59863L8 1.74023L9.34082 5.59863Z" fill="white" stroke="white" stroke-width="1.14286"/>
<path d="M27.3408 5.59863L27.4717 5.97461L27.8691 5.98242L31.9521 6.06543L28.6982 8.5332L28.3809 8.77344L28.4961 9.1543L29.6787 13.0635L26.3262 10.7314L26 10.5039L25.6738 10.7314L22.3203 13.0635L23.5039 9.1543L23.6191 8.77344L23.3018 8.5332L20.0469 6.06543L24.1309 5.98242L24.5283 5.97461L24.6592 5.59863L26 1.74023L27.3408 5.59863Z" fill="white" stroke="white" stroke-width="1.14286"/>
<path d="M45.3408 5.59863L45.4717 5.97461L45.8691 5.98242L49.9521 6.06543L46.6982 8.5332L46.3809 8.77344L46.4961 9.1543L47.6787 13.0635L44.3262 10.7314L44 10.5039L43.6738 10.7314L40.3203 13.0635L41.5039 9.1543L41.6191 8.77344L41.3018 8.5332L38.0469 6.06543L42.1309 5.98242L42.5283 5.97461L42.6592 5.59863L44 1.74023L45.3408 5.59863Z" fill="white" stroke="white" stroke-width="1.14286"/>
<path d="M63.3408 5.59863L63.4717 5.97461L63.8691 5.98242L67.9521 6.06543L64.6982 8.5332L64.3809 8.77344L64.4961 9.1543L65.6787 13.0635L62.3262 10.7314L62 10.5039L61.6738 10.7314L58.3203 13.0635L59.5039 9.1543L59.6191 8.77344L59.3018 8.5332L56.0469 6.06543L60.1309 5.98242L60.5283 5.97461L60.6592 5.59863L62 1.74023L63.3408 5.59863Z" fill="white" stroke="white" stroke-width="1.14286"/>
<path d="M81.3408 5.59863L81.4717 5.97461L81.8691 5.98242L85.9521 6.06543L82.6982 8.5332L82.3809 8.77344L82.4961 9.1543L83.6787 13.0635L80.3262 10.7314L80 10.5039L79.6738 10.7314L76.3203 13.0635L77.5039 9.1543L77.6191 8.77344L77.3018 8.5332L74.0469 6.06543L78.1309 5.98242L78.5283 5.97461L78.6592 5.59863L80 1.74023L81.3408 5.59863Z" fill="white" stroke="white" stroke-width="1.14286"/>
</svg>
