<svg width="24" height="24" viewBox="0 0 24 24" fill="none" xmlns="http://www.w3.org/2000/svg">
<rect width="24" height="24" rx="12" fill="white"/>
<path fill-rule="evenodd" clip-rule="evenodd" d="M16.29 15.355L12.93 11.995L16.2699 8.64502L11.2099 3.58496V10.255L8.92997 7.97498C8.64997 7.69498 8.19996 7.69498 7.91996 7.97498C7.63996 8.25498 7.63996 8.70499 7.91996 8.98499L10.91 11.995L7.91996 14.985C7.63996 15.265 7.63996 15.715 7.91996 15.995C8.19996 16.275 8.64997 16.275 8.92997 15.995L11.23 13.725V20.415L16.29 15.355ZM12.6399 7.03503L14.25 8.65503L12.6399 10.265V7.04504V7.03503ZM12.6399 13.735L14.25 15.345L12.6399 16.955V13.745V13.735Z" fill="#0082FC"/>
</svg>
