<svg width="84" height="24" viewBox="0 0 84 24" fill="none" xmlns="http://www.w3.org/2000/svg">
<path d="M84 23V22.5H0V23V23.5H84V23Z" fill="#005695"/>
<path d="M9.424 18.968L7.728 16.936C7.25867 17.0533 6.77867 17.112 6.288 17.112C5.24267 17.112 4.28267 16.8667 3.408 16.376C2.53333 15.8853 1.84 15.208 1.328 14.344C0.816 13.4693 0.56 12.4827 0.56 11.384C0.56 10.296 0.816 9.32 1.328 8.456C1.84 7.58133 2.53333 6.89867 3.408 6.408C4.28267 5.91733 5.24267 5.672 6.288 5.672C7.344 5.672 8.304 5.91733 9.168 6.408C10.0427 6.89867 10.7307 7.58133 11.232 8.456C11.744 9.32 12 10.296 12 11.384C12 12.376 11.7867 13.2827 11.36 14.104C10.944 14.9147 10.3733 15.576 9.648 16.088L12.208 18.968H9.424ZM2.864 11.384C2.864 12.1307 3.008 12.7867 3.296 13.352C3.584 13.9173 3.984 14.3547 4.496 14.664C5.01867 14.9627 5.616 15.112 6.288 15.112C6.96 15.112 7.552 14.9627 8.064 14.664C8.576 14.3547 8.976 13.9173 9.264 13.352C9.552 12.7867 9.696 12.1307 9.696 11.384C9.696 10.6373 9.552 9.98667 9.264 9.432C8.976 8.86667 8.576 8.43467 8.064 8.136C7.552 7.83733 6.96 7.688 6.288 7.688C5.616 7.688 5.01867 7.83733 4.496 8.136C3.984 8.43467 3.584 8.86667 3.296 9.432C3.008 9.98667 2.864 10.6373 2.864 11.384ZM22.0658 8.136V17H19.8098V15.88C19.5218 16.264 19.1431 16.568 18.6738 16.792C18.2151 17.0053 17.7138 17.112 17.1698 17.112C16.4764 17.112 15.8631 16.968 15.3298 16.68C14.7964 16.3813 14.3751 15.9493 14.0658 15.384C13.7671 14.808 13.6178 14.1253 13.6178 13.336V8.136H15.8578V13.016C15.8578 13.72 16.0338 14.264 16.3858 14.648C16.7378 15.0213 17.2178 15.208 17.8258 15.208C18.4444 15.208 18.9298 15.0213 19.2818 14.648C19.6338 14.264 19.8098 13.72 19.8098 13.016V8.136H22.0658ZM25.4119 7.08C25.0172 7.08 24.6865 6.95733 24.4199 6.712C24.1639 6.456 24.0359 6.14133 24.0359 5.768C24.0359 5.39467 24.1639 5.08533 24.4199 4.84C24.6865 4.584 25.0172 4.456 25.4119 4.456C25.8065 4.456 26.1319 4.584 26.3879 4.84C26.6545 5.08533 26.7879 5.39467 26.7879 5.768C26.7879 6.14133 26.6545 6.456 26.3879 6.712C26.1319 6.95733 25.8065 7.08 25.4119 7.08ZM26.5159 8.136V17H24.2759V8.136H26.5159ZM28.153 12.568C28.153 11.6507 28.3397 10.8507 28.713 10.168C29.0863 9.47467 29.6037 8.94133 30.265 8.568C30.9263 8.184 31.6837 7.992 32.537 7.992C33.6357 7.992 34.5423 8.26933 35.257 8.824C35.9823 9.368 36.4677 10.136 36.713 11.128H34.297C34.169 10.744 33.9503 10.4453 33.641 10.232C33.3423 10.008 32.969 9.896 32.521 9.896C31.881 9.896 31.3743 10.1307 31.001 10.6C30.6277 11.0587 30.441 11.7147 30.441 12.568C30.441 13.4107 30.6277 14.0667 31.001 14.536C31.3743 14.9947 31.881 15.224 32.521 15.224C33.4277 15.224 34.0197 14.8187 34.297 14.008H36.713C36.4677 14.968 35.9823 15.7307 35.257 16.296C34.5317 16.8613 33.625 17.144 32.537 17.144C31.6837 17.144 30.9263 16.9573 30.265 16.584C29.6037 16.2 29.0863 15.6667 28.713 14.984C28.3397 14.2907 28.153 13.4853 28.153 12.568ZM43.602 17L40.594 13.224V17H38.354V5.16H40.594V11.896L43.57 8.136H46.482L42.578 12.584L46.514 17H43.602ZM51.3938 14.936L53.6338 8.136H56.0178L52.7378 17H50.0178L46.7538 8.136H49.1538L51.3938 14.936ZM58.4119 7.08C58.0172 7.08 57.6865 6.95733 57.4199 6.712C57.1639 6.456 57.0359 6.14133 57.0359 5.768C57.0359 5.39467 57.1639 5.08533 57.4199 4.84C57.6865 4.584 58.0172 4.456 58.4119 4.456C58.8065 4.456 59.1319 4.584 59.3879 4.84C59.6545 5.08533 59.7879 5.39467 59.7879 5.768C59.7879 6.14133 59.6545 6.456 59.3879 6.712C59.1319 6.95733 58.8065 7.08 58.4119 7.08ZM59.5159 8.136V17H57.2759V8.136H59.5159ZM69.969 12.376C69.969 12.696 69.9477 12.984 69.905 13.24H63.425C63.4783 13.88 63.7023 14.3813 64.097 14.744C64.4917 15.1067 64.977 15.288 65.553 15.288C66.385 15.288 66.977 14.9307 67.329 14.216H69.745C69.489 15.0693 68.9983 15.7733 68.273 16.328C67.5477 16.872 66.657 17.144 65.601 17.144C64.7477 17.144 63.9797 16.9573 63.297 16.584C62.625 16.2 62.097 15.6613 61.713 14.968C61.3397 14.2747 61.153 13.4747 61.153 12.568C61.153 11.6507 61.3397 10.8453 61.713 10.152C62.0863 9.45867 62.609 8.92533 63.281 8.552C63.953 8.17867 64.7263 7.992 65.601 7.992C66.4437 7.992 67.1957 8.17333 67.857 8.536C68.529 8.89867 69.0463 9.416 69.409 10.088C69.7823 10.7493 69.969 11.512 69.969 12.376ZM67.649 11.736C67.6383 11.16 67.4303 10.7013 67.025 10.36C66.6197 10.008 66.1237 9.832 65.537 9.832C64.9823 9.832 64.513 10.0027 64.129 10.344C63.7557 10.6747 63.5263 11.1387 63.441 11.736H67.649ZM83.892 8.136L81.3 17H78.884L77.268 10.808L75.652 17H73.22L70.612 8.136H72.884L74.452 14.888L76.148 8.136H78.516L80.18 14.872L81.748 8.136H83.892Z" fill="#005695"/>
</svg>
