<svg width="60" height="18" viewBox="0 0 60 18" fill="none" xmlns="http://www.w3.org/2000/svg">
<path d="M60 17V16.5H0V17V17.5H60V17Z" fill="white"/>
<path d="M3.91922 13.084C3.33522 13.084 2.80722 12.984 2.33522 12.784C1.87122 12.584 1.50322 12.296 1.23122 11.92C0.959219 11.544 0.819219 11.1 0.811219 10.588H2.61122C2.63522 10.932 2.75522 11.204 2.97122 11.404C3.19522 11.604 3.49922 11.704 3.88322 11.704C4.27522 11.704 4.58322 11.612 4.80722 11.428C5.03122 11.236 5.14322 10.988 5.14322 10.684C5.14322 10.436 5.06722 10.232 4.91522 10.072C4.76322 9.912 4.57122 9.788 4.33922 9.7C4.11522 9.604 3.80322 9.5 3.40322 9.388C2.85922 9.228 2.41522 9.072 2.07122 8.92C1.73522 8.76 1.44322 8.524 1.19522 8.212C0.955219 7.892 0.835219 7.468 0.835219 6.94C0.835219 6.444 0.959219 6.012 1.20722 5.644C1.45522 5.276 1.80322 4.996 2.25122 4.804C2.69922 4.604 3.21122 4.504 3.78722 4.504C4.65122 4.504 5.35122 4.716 5.88722 5.14C6.43122 5.556 6.73122 6.14 6.78722 6.892H4.93922C4.92322 6.604 4.79922 6.368 4.56722 6.184C4.34322 5.992 4.04322 5.896 3.66722 5.896C3.33922 5.896 3.07522 5.98 2.87522 6.148C2.68322 6.316 2.58722 6.56 2.58722 6.88C2.58722 7.104 2.65922 7.292 2.80322 7.444C2.95522 7.588 3.13922 7.708 3.35522 7.804C3.57922 7.892 3.89122 7.996 4.29122 8.116C4.83522 8.276 5.27922 8.436 5.62322 8.596C5.96722 8.756 6.26322 8.996 6.51122 9.316C6.75922 9.636 6.88322 10.056 6.88322 10.576C6.88322 11.024 6.76722 11.44 6.53522 11.824C6.30322 12.208 5.96322 12.516 5.51522 12.748C5.06722 12.972 4.53522 13.084 3.91922 13.084ZM12.0837 6.256C12.5877 6.256 13.0357 6.368 13.4277 6.592C13.8197 6.808 14.1237 7.132 14.3397 7.564C14.5637 7.988 14.6757 8.5 14.6757 9.1V13H12.9957V9.328C12.9957 8.8 12.8637 8.396 12.5997 8.116C12.3357 7.828 11.9757 7.684 11.5197 7.684C11.0557 7.684 10.6877 7.828 10.4157 8.116C10.1517 8.396 10.0197 8.8 10.0197 9.328V13H8.33972V4.12H10.0197V7.18C10.2357 6.892 10.5237 6.668 10.8837 6.508C11.2437 6.34 11.6437 6.256 12.0837 6.256ZM19.2253 13.108C18.5853 13.108 18.0093 12.968 17.4973 12.688C16.9853 12.4 16.5813 11.996 16.2853 11.476C15.9973 10.956 15.8533 10.356 15.8533 9.676C15.8533 8.996 16.0013 8.396 16.2973 7.876C16.6013 7.356 17.0133 6.956 17.5333 6.676C18.0533 6.388 18.6333 6.244 19.2733 6.244C19.9133 6.244 20.4933 6.388 21.0133 6.676C21.5333 6.956 21.9413 7.356 22.2373 7.876C22.5413 8.396 22.6933 8.996 22.6933 9.676C22.6933 10.356 22.5373 10.956 22.2253 11.476C21.9213 11.996 21.5053 12.4 20.9773 12.688C20.4573 12.968 19.8733 13.108 19.2253 13.108ZM19.2253 11.644C19.5293 11.644 19.8133 11.572 20.0773 11.428C20.3493 11.276 20.5653 11.052 20.7253 10.756C20.8853 10.46 20.9653 10.1 20.9653 9.676C20.9653 9.044 20.7973 8.56 20.4613 8.224C20.1333 7.88 19.7293 7.708 19.2493 7.708C18.7693 7.708 18.3653 7.88 18.0373 8.224C17.7173 8.56 17.5573 9.044 17.5573 9.676C17.5573 10.308 17.7133 10.796 18.0253 11.14C18.3453 11.476 18.7453 11.644 19.2253 11.644ZM25.6057 7.312C25.8217 7.008 26.1177 6.756 26.4937 6.556C26.8777 6.348 27.3137 6.244 27.8017 6.244C28.3697 6.244 28.8817 6.384 29.3377 6.664C29.8017 6.944 30.1657 7.344 30.4297 7.864C30.7017 8.376 30.8377 8.972 30.8377 9.652C30.8377 10.332 30.7017 10.936 30.4297 11.464C30.1657 11.984 29.8017 12.388 29.3377 12.676C28.8817 12.964 28.3697 13.108 27.8017 13.108C27.3137 13.108 26.8817 13.008 26.5057 12.808C26.1377 12.608 25.8377 12.356 25.6057 12.052V16.168H23.9257V6.352H25.6057V7.312ZM29.1217 9.652C29.1217 9.252 29.0377 8.908 28.8697 8.62C28.7097 8.324 28.4937 8.1 28.2217 7.948C27.9577 7.796 27.6697 7.72 27.3577 7.72C27.0537 7.72 26.7657 7.8 26.4937 7.96C26.2297 8.112 26.0137 8.336 25.8457 8.632C25.6857 8.928 25.6057 9.276 25.6057 9.676C25.6057 10.076 25.6857 10.424 25.8457 10.72C26.0137 11.016 26.2297 11.244 26.4937 11.404C26.7657 11.556 27.0537 11.632 27.3577 11.632C27.6697 11.632 27.9577 11.552 28.2217 11.392C28.4937 11.232 28.7097 11.004 28.8697 10.708C29.0377 10.412 29.1217 10.06 29.1217 9.652ZM38.6018 6.256C39.3938 6.256 40.0338 6.508 40.5218 7.012C41.0098 7.508 41.2538 8.204 41.2538 9.1V13H39.5738V9.328C39.5738 8.8 39.4418 8.396 39.1778 8.116C38.9138 7.828 38.5538 7.684 38.0978 7.684C37.6338 7.684 37.2658 7.828 36.9938 8.116C36.7298 8.396 36.5978 8.8 36.5978 9.328V13H34.9178V6.352H36.5978V7.18C36.8218 6.892 37.1058 6.668 37.4498 6.508C37.8018 6.34 38.1858 6.256 38.6018 6.256ZM45.8034 13.108C45.1634 13.108 44.5874 12.968 44.0754 12.688C43.5634 12.4 43.1594 11.996 42.8634 11.476C42.5754 10.956 42.4314 10.356 42.4314 9.676C42.4314 8.996 42.5794 8.396 42.8754 7.876C43.1794 7.356 43.5914 6.956 44.1114 6.676C44.6314 6.388 45.2114 6.244 45.8514 6.244C46.4914 6.244 47.0714 6.388 47.5914 6.676C48.1114 6.956 48.5194 7.356 48.8154 7.876C49.1194 8.396 49.2714 8.996 49.2714 9.676C49.2714 10.356 49.1154 10.956 48.8034 11.476C48.4994 11.996 48.0834 12.4 47.5554 12.688C47.0354 12.968 46.4514 13.108 45.8034 13.108ZM45.8034 11.644C46.1074 11.644 46.3914 11.572 46.6554 11.428C46.9274 11.276 47.1434 11.052 47.3034 10.756C47.4634 10.46 47.5434 10.1 47.5434 9.676C47.5434 9.044 47.3754 8.56 47.0394 8.224C46.7114 7.88 46.3074 7.708 45.8274 7.708C45.3474 7.708 44.9434 7.88 44.6154 8.224C44.2954 8.56 44.1354 9.044 44.1354 9.676C44.1354 10.308 44.2914 10.796 44.6034 11.14C44.9234 11.476 45.3234 11.644 45.8034 11.644ZM59.7198 6.352L57.7758 13H55.9638L54.7518 8.356L53.5398 13H51.7158L49.7598 6.352H51.4638L52.6398 11.416L53.9118 6.352H55.6878L56.9358 11.404L58.1118 6.352H59.7198Z" fill="white"/>
</svg>
