<svg width="16" height="16" viewBox="0 0 16 16" fill="none" xmlns="http://www.w3.org/2000/svg">
<g clip-path="url(#clip0_0_518)">
<path fill-rule="evenodd" clip-rule="evenodd" d="M7.98988 1.12744L7.98988 12.3294C7.89048 12.3294 7.79114 12.3564 7.70312 12.4102L4.26519 14.5128C3.84721 14.7684 3.32894 14.3914 3.44258 13.9143L4.37729 9.99069C4.4252 9.78963 4.35672 9.57856 4.19991 9.44409L1.14045 6.81989C0.768491 6.50087 0.966454 5.89082 1.45467 5.85163L5.47025 5.52929C5.67607 5.51276 5.85535 5.38233 5.93465 5.19144L7.48168 1.46704C7.57569 1.24072 7.78275 1.12752 7.98988 1.12744Z" fill="#005695"/>
<path fill-rule="evenodd" clip-rule="evenodd" d="M7.98926 12.3294C8.0888 12.3293 8.18833 12.3562 8.27649 12.4102L11.7144 14.5128C12.1323 14.7684 12.6507 14.3914 12.537 13.9143L11.6023 9.99069C11.5544 9.78963 11.6229 9.57856 11.7797 9.44409L14.8391 6.81989C15.2111 6.50087 15.0131 5.89082 14.5249 5.85163L10.5093 5.52929C10.3035 5.51276 10.1242 5.38233 10.0449 5.19144L8.49786 1.46705C8.40379 1.24056 8.19652 1.12736 7.98926 1.12744L7.98926 12.3294Z" fill="#C9CAD4"/>
</g>
<defs>
<clipPath id="clip0_0_518">
<rect width="15.9793" height="16" fill="white"/>
</clipPath>
</defs>
</svg>
