<svg width="430" height="104" viewBox="0 0 430 104" fill="none" xmlns="http://www.w3.org/2000/svg">
<g filter="url(#filter0_d_807_2941)">
<rect x="20" width="390" height="64" fill="white"/>
<path d="M261.9 18.9003C261.164 18.2957 260.259 18 259.182 18H247.043L247.969 18.9725C247.424 19.564 247.141 20.2736 247.148 21.1148V28.5665C247.135 29.4405 247.496 30.183 248.244 30.781C248.986 31.3856 249.899 31.6813 250.975 31.6813H259.622C260.698 31.6813 261.532 31.379 262.116 30.781C262.701 30.1765 263.003 29.4405 263.016 28.5665V21.1148C263.016 20.2408 262.648 19.5048 261.913 18.9003H261.9ZM257.698 28.3825H252.433C252.039 28.3825 251.724 28.0605 251.724 27.6728V22.0282C251.724 21.6339 252.046 21.3185 252.433 21.3185H257.698C258.092 21.3185 258.407 21.6405 258.407 22.0282V27.6728C258.407 28.0671 258.085 28.3825 257.698 28.3825Z" fill="#151515"/>
<path d="M294.863 18V25.432L288.154 18H281.825L283.539 19.8202V31.6878H288.128V23.9995L295.074 31.6878H299.452V18H294.863Z" fill="#151515"/>
<path d="M279.914 18.9134C279.172 18.3023 278.266 18 277.19 18H263.744L265.458 19.8268V31.6944H270.053V27.2063H272.266L276.198 31.6944H281.47L277.091 27.2063H277.183C278.509 27.2063 279.481 26.8974 280.085 26.2863C280.695 25.6686 281.004 24.9392 281.01 24.0915V21.1279C281.01 20.2671 280.649 19.5311 279.907 18.92L279.914 18.9134ZM275.141 24.0455H270.053V21.3119H275.141C275.85 21.3119 276.421 21.8836 276.421 22.5933V22.7707C276.421 23.4738 275.85 24.0521 275.141 24.0521V24.0455Z" fill="#151515"/>
<path d="M244.049 19.7479C243.767 19.2025 243.314 18.7754 242.69 18.4666C242.066 18.1577 241.351 18 240.537 18H227.84L229.534 19.8268V31.6944H242.053C242.848 31.6944 243.504 31.4907 244.01 31.0833C244.515 30.6759 244.889 30.1765 245.119 29.5719C245.349 28.9674 245.447 28.3234 245.408 27.6334C245.369 26.9434 245.198 26.306 244.889 25.7212C244.535 25.0378 244.049 24.5318 243.438 24.1967C243.675 24.0192 243.878 23.7498 244.043 23.395C244.207 23.0401 244.318 22.6459 244.377 22.2187C244.436 21.785 244.436 21.3513 244.39 20.9176C244.344 20.4773 244.226 20.0896 244.049 19.7479ZM238.692 23.4935H234.123V22.4356L232.856 21.2856H238.685C239.362 21.2856 239.874 21.7127 239.874 22.1596V22.6064C239.874 22.889 239.513 23.487 238.692 23.487V23.4935ZM239.46 28.3825H234.123V26.1549H239.46C240.143 26.1549 240.655 26.5886 240.655 27.0354V27.4888C240.655 27.778 240.287 28.3825 239.46 28.3825Z" fill="#151515"/>
<path d="M196.57 28.3825V18H191.961V19.8137V31.6878H204.454V28.3825H196.57Z" fill="#151515"/>
<path d="M205.92 31.6878H219.962V28.3825H210.495V26.2337H218.905V23.4541H210.495V21.2922V21.2856H219.962V18H204.206L205.92 19.8202V31.6878Z" fill="#151515"/>
<path d="M140.209 19.7479C139.927 19.2025 139.474 18.7754 138.85 18.4666C138.227 18.1577 137.511 18 136.697 18H124L125.694 19.8268V31.6944H138.213C139.008 31.6944 139.664 31.4907 140.17 31.0833C140.675 30.6759 141.05 30.1765 141.279 29.5719C141.509 28.9674 141.608 28.3234 141.568 27.6334C141.529 26.9434 141.358 26.306 141.05 25.7212C140.695 25.0378 140.209 24.5318 139.599 24.1967C139.835 24.0192 140.039 23.7498 140.203 23.395C140.367 23.0401 140.478 22.6459 140.538 22.2187C140.597 21.785 140.597 21.3513 140.551 20.9176C140.505 20.4773 140.387 20.0896 140.209 19.7479ZM134.852 23.4935H130.283V22.4356L129.016 21.2856H134.846C135.522 21.2856 136.034 21.7127 136.034 22.1596V22.6064C136.034 22.889 135.673 23.487 134.852 23.487V23.4935ZM135.62 28.3825H130.283V26.1549H135.62C136.303 26.1549 136.815 26.5886 136.815 27.0354V27.4888C136.815 27.778 136.447 28.3825 135.62 28.3825Z" fill="#151515"/>
<path d="M160.461 31.6878H154.592L149.806 28.3825H153.955L151.053 22.8101L146.615 31.6878H141.672L147.856 19.8202L146.162 18H153.325L160.461 31.6878Z" fill="#151515"/>
<path d="M155.932 18L157.619 19.8202L157.612 21.2856H163.271V31.6878H167.867V21.2922V21.2856H173.277V18H155.932Z" fill="#151515"/>
<path d="M174.736 18V21.2856H180.113V31.6878H184.709V21.2922V21.2856H190.499V18H174.736Z" fill="#151515"/>
<path d="M153.352 38.2065V41.709C153.352 42.0901 153.451 42.3858 153.654 42.5895C153.851 42.7932 154.133 42.8918 154.494 42.8918C154.856 42.8918 155.144 42.7932 155.348 42.5895C155.545 42.3858 155.65 42.0967 155.65 41.709V38.2065H156.792V41.6958C156.792 42.1755 156.687 42.5829 156.484 42.9181C156.274 43.2466 155.998 43.5029 155.65 43.6672C155.302 43.8315 154.915 43.9169 154.488 43.9169C154.061 43.9169 153.687 43.8315 153.346 43.6672C153.004 43.5029 152.735 43.2466 152.532 42.9181C152.335 42.5829 152.229 42.1821 152.229 41.6958V38.2065H153.359H153.352Z" fill="#151515"/>
<path d="M161.658 39.8099C161.986 40.145 162.151 40.6181 162.151 41.2227V43.8577H161.015V41.3804C161.015 41.0255 160.923 40.7496 160.746 40.559C160.568 40.3684 160.325 40.2699 160.017 40.2699C159.708 40.2699 159.459 40.3684 159.275 40.559C159.091 40.7496 159.006 41.0255 159.006 41.3804V43.8577H157.87V39.3696H159.006V39.9282C159.157 39.731 159.347 39.5799 159.584 39.4682C159.82 39.3565 160.076 39.3039 160.358 39.3039C160.89 39.3039 161.323 39.4747 161.652 39.8099H161.658Z" fill="#151515"/>
<path d="M163.955 43.7329C163.666 43.6015 163.43 43.4175 163.266 43.1941C163.095 42.9641 163.003 42.7144 162.983 42.4384H164.126C164.145 42.6093 164.231 42.7538 164.382 42.8655C164.533 42.9772 164.717 43.0364 164.94 43.0364C165.163 43.0364 165.321 42.9904 165.445 42.905C165.57 42.8195 165.629 42.7078 165.629 42.5698C165.629 42.4253 165.557 42.3135 165.406 42.2413C165.255 42.169 165.019 42.0901 164.697 42.0047C164.362 41.9258 164.086 41.8404 163.876 41.755C163.666 41.6696 163.482 41.5381 163.325 41.3607C163.167 41.1833 163.095 40.9402 163.095 40.6379C163.095 40.3882 163.167 40.1648 163.312 39.9611C163.456 39.7573 163.66 39.5931 163.929 39.4748C164.198 39.3565 164.513 39.2974 164.874 39.2974C165.406 39.2974 165.833 39.4288 166.154 39.6982C166.469 39.9676 166.647 40.329 166.68 40.7825H165.596C165.583 40.605 165.504 40.4605 165.373 40.3553C165.242 40.2502 165.065 40.1976 164.841 40.1976C164.638 40.1976 164.48 40.237 164.369 40.3093C164.257 40.3816 164.204 40.4933 164.204 40.6247C164.204 40.7759 164.283 40.8942 164.434 40.9665C164.585 41.0453 164.822 41.1242 165.137 41.203C165.458 41.2819 165.728 41.3673 165.938 41.4527C166.148 41.5381 166.332 41.6696 166.483 41.8536C166.64 42.031 166.719 42.2741 166.719 42.5698C166.719 42.8261 166.647 43.0627 166.502 43.2664C166.358 43.4701 166.154 43.6344 165.885 43.7461C165.616 43.8644 165.307 43.9235 164.953 43.9235C164.598 43.9235 164.257 43.8578 163.968 43.7264L163.955 43.7329Z" fill="#151515"/>
<path d="M168.959 40.3027V42.4712C168.959 42.6223 168.998 42.734 169.07 42.7998C169.142 42.8655 169.267 42.8983 169.438 42.8983H169.963V43.8511H169.254C168.295 43.8511 167.823 43.3846 167.823 42.4581V40.2961H167.291V39.363H167.823V38.2525H168.965V39.363H169.97V40.2961H168.965L168.959 40.3027Z" fill="#151515"/>
<path d="M171.605 43.6409C171.257 43.4503 170.988 43.1809 170.791 42.826C170.594 42.4777 170.495 42.0703 170.495 41.6103C170.495 41.1504 170.6 40.7495 170.797 40.3947C171.001 40.0464 171.276 39.7704 171.624 39.5798C171.972 39.3893 172.366 39.2907 172.799 39.2907C173.233 39.2907 173.62 39.3893 173.975 39.5798C174.329 39.7704 174.605 40.0464 174.802 40.3947C175.005 40.7429 175.104 41.1504 175.104 41.6103C175.104 42.0703 174.999 42.4777 174.795 42.826C174.585 43.1743 174.309 43.4503 173.955 43.6409C173.6 43.8314 173.207 43.93 172.767 43.93C172.327 43.93 171.946 43.8314 171.605 43.6409ZM173.351 42.7932C173.528 42.6946 173.673 42.5435 173.784 42.3463C173.889 42.1492 173.948 41.9061 173.948 41.6169C173.948 41.1898 173.837 40.8612 173.614 40.6312C173.39 40.4012 173.115 40.2895 172.793 40.2895C172.471 40.2895 172.202 40.4078 171.979 40.6312C171.762 40.8612 171.651 41.1898 171.651 41.6169C171.651 42.0441 171.756 42.3726 171.972 42.6026C172.182 42.8326 172.452 42.9443 172.78 42.9443C172.983 42.9443 173.18 42.8917 173.357 42.7932H173.351Z" fill="#151515"/>
<path d="M177.677 39.5076C177.933 39.3696 178.229 39.3039 178.557 39.3039C178.938 39.3039 179.286 39.3959 179.594 39.5865C179.903 39.777 180.152 40.0464 180.33 40.3947C180.507 40.743 180.599 41.1438 180.599 41.6038C180.599 42.0638 180.507 42.4712 180.33 42.8261C180.146 43.1809 179.903 43.4569 179.594 43.6475C179.286 43.8446 178.938 43.9366 178.557 43.9366C178.229 43.9366 177.94 43.8709 177.684 43.7329C177.434 43.5949 177.231 43.4306 177.073 43.2203V46H175.938V39.3762H177.073V40.0267C177.218 39.823 177.421 39.6522 177.677 39.5142V39.5076ZM179.279 40.9007C179.168 40.7036 179.023 40.5524 178.839 40.4539C178.655 40.3553 178.465 40.3027 178.255 40.3027C178.045 40.3027 177.855 40.3553 177.677 40.4604C177.5 40.5656 177.349 40.7167 177.244 40.9204C177.132 41.1175 177.08 41.3541 177.08 41.6235C177.08 41.893 177.132 42.1295 177.244 42.3267C177.356 42.5238 177.5 42.6815 177.677 42.7866C177.861 42.8918 178.051 42.9443 178.255 42.9443C178.459 42.9443 178.662 42.8918 178.839 42.7801C179.023 42.6749 179.168 42.5172 179.279 42.3201C179.391 42.1229 179.443 41.8798 179.443 41.6104C179.443 41.341 179.391 41.1044 179.279 40.9073V40.9007Z" fill="#151515"/>
<path d="M183.164 39.5076C183.42 39.3696 183.715 39.3039 184.043 39.3039C184.424 39.3039 184.772 39.3959 185.081 39.5865C185.389 39.777 185.639 40.0464 185.816 40.3947C185.993 40.743 186.085 41.1438 186.085 41.6038C186.085 42.0638 185.993 42.4712 185.816 42.8261C185.632 43.1809 185.389 43.4569 185.081 43.6475C184.772 43.8446 184.424 43.9366 184.043 43.9366C183.715 43.9366 183.426 43.8709 183.17 43.7329C182.921 43.5949 182.717 43.4306 182.56 43.2203V46H181.424V39.3762H182.56V40.0267C182.704 39.823 182.908 39.6522 183.164 39.5142V39.5076ZM184.765 40.9007C184.654 40.7036 184.509 40.5524 184.326 40.4539C184.142 40.3553 183.951 40.3027 183.741 40.3027C183.531 40.3027 183.341 40.3553 183.164 40.4604C182.986 40.5656 182.835 40.7167 182.73 40.9204C182.619 41.1175 182.566 41.3541 182.566 41.6235C182.566 41.893 182.619 42.1295 182.73 42.3267C182.842 42.5238 182.986 42.6815 183.164 42.7866C183.347 42.8918 183.538 42.9443 183.741 42.9443C183.945 42.9443 184.148 42.8918 184.326 42.7801C184.509 42.6749 184.654 42.5172 184.765 42.3201C184.877 42.1229 184.93 41.8798 184.93 41.6104C184.93 41.341 184.877 41.1044 184.765 40.9073V40.9007Z" fill="#151515"/>
<path d="M186.893 40.3882C187.077 40.0399 187.32 39.7705 187.629 39.5799C187.937 39.3894 188.285 39.2974 188.666 39.2974C189.001 39.2974 189.296 39.3631 189.546 39.5011C189.795 39.6391 189.998 39.8033 190.149 40.0136V39.3762H191.292V43.8644H190.149V43.2072C190.005 43.4175 189.802 43.5884 189.546 43.7329C189.289 43.8709 188.994 43.9366 188.659 43.9366C188.278 43.9366 187.937 43.8381 187.629 43.6475C187.32 43.4504 187.07 43.1809 186.893 42.8261C186.709 42.4713 186.624 42.0638 186.624 41.6039C186.624 41.1439 186.716 40.7496 186.893 40.3948V40.3882ZM189.985 40.9073C189.88 40.7102 189.729 40.559 189.552 40.4539C189.368 40.3488 189.171 40.2962 188.961 40.2962C188.751 40.2962 188.554 40.3488 188.377 40.4473C188.2 40.5525 188.055 40.697 187.944 40.8942C187.832 41.0913 187.779 41.3279 187.779 41.5973C187.779 41.8667 187.839 42.1033 187.944 42.307C188.055 42.5107 188.2 42.6618 188.383 42.7735C188.567 42.8787 188.758 42.9378 188.961 42.9378C189.165 42.9378 189.368 42.8852 189.552 42.7801C189.736 42.675 189.88 42.5238 189.985 42.3267C190.097 42.1296 190.149 41.893 190.149 41.617C190.149 41.341 190.097 41.1044 189.985 40.9073Z" fill="#151515"/>
<path d="M194.134 39.501C194.39 39.363 194.686 39.2973 195.014 39.2973C195.395 39.2973 195.743 39.3893 196.051 39.5799C196.36 39.7705 196.609 40.0399 196.787 40.3882C196.964 40.7364 197.056 41.1373 197.056 41.5973C197.056 42.0572 196.964 42.4647 196.787 42.8195C196.603 43.1743 196.36 43.4503 196.051 43.6409C195.743 43.838 195.395 43.93 195.014 43.93C194.679 43.93 194.384 43.8643 194.134 43.7329C193.885 43.6015 193.681 43.4306 193.53 43.2203V43.8578H192.395V37.8648H193.53V40.0267C193.675 39.8099 193.878 39.6325 194.134 39.501ZM195.736 40.9007C195.625 40.7036 195.48 40.5524 195.296 40.4539C195.113 40.3553 194.922 40.3027 194.712 40.3027C194.502 40.3027 194.312 40.3553 194.134 40.4604C193.957 40.5656 193.806 40.7167 193.701 40.9204C193.589 41.1176 193.537 41.3541 193.537 41.6235C193.537 41.893 193.589 42.1295 193.701 42.3267C193.813 42.5238 193.957 42.6815 194.134 42.7866C194.318 42.8918 194.509 42.9444 194.712 42.9444C194.916 42.9444 195.119 42.8918 195.296 42.7801C195.48 42.6749 195.625 42.5172 195.736 42.3201C195.848 42.123 195.9 41.8798 195.9 41.6104C195.9 41.341 195.848 41.1044 195.736 40.9073V40.9007Z" fill="#151515"/>
<path d="M199.02 37.8648V43.8578H197.884V37.8648H199.02Z" fill="#151515"/>
<path d="M204.271 41.9521H200.995C201.022 42.274 201.133 42.5303 201.337 42.7143C201.534 42.8983 201.783 42.9903 202.072 42.9903C202.492 42.9903 202.794 42.8063 202.971 42.4449H204.193C204.061 42.8786 203.812 43.2334 203.444 43.5094C203.076 43.7854 202.63 43.9234 202.092 43.9234C201.658 43.9234 201.271 43.8248 200.93 43.6343C200.588 43.4437 200.319 43.1743 200.129 42.8195C199.938 42.4712 199.84 42.0638 199.84 41.6038C199.84 41.1438 199.932 40.7298 200.122 40.3815C200.313 40.0333 200.575 39.7638 200.917 39.5733C201.258 39.3827 201.645 39.2907 202.092 39.2907C202.538 39.2907 202.899 39.3827 203.234 39.5667C203.569 39.7507 203.831 40.0135 204.022 40.3487C204.212 40.6838 204.304 41.0715 204.304 41.5118C204.304 41.6761 204.291 41.8206 204.271 41.9521ZM203.129 41.1964C203.129 40.9072 203.017 40.6707 202.814 40.4932C202.61 40.3158 202.361 40.2304 202.059 40.2304C201.777 40.2304 201.54 40.3158 201.35 40.4867C201.159 40.6575 201.041 40.8941 200.995 41.1964H203.122H203.129Z" fill="#151515"/>
<path d="M210.961 40.8021C210.817 41.065 210.593 41.2818 210.291 41.4395C209.989 41.6038 209.602 41.6827 209.136 41.6827H208.19V43.8512H207.055V38.1999H209.136C209.576 38.1999 209.943 38.2788 210.252 38.4299C210.56 38.5811 210.79 38.7913 210.941 39.0542C211.092 39.317 211.171 39.6193 211.171 39.9544C211.171 40.2567 211.099 40.5393 210.954 40.8021H210.961ZM209.779 40.559C209.93 40.4144 210.009 40.2173 210.009 39.9544C210.009 39.4025 209.7 39.1265 209.083 39.1265H208.184V40.7693H209.083C209.398 40.7693 209.628 40.697 209.779 40.5524V40.559Z" fill="#151515"/>
<path d="M212.799 43.6409C212.451 43.4503 212.182 43.1809 211.985 42.826C211.788 42.4777 211.689 42.0703 211.689 41.6103C211.689 41.1504 211.795 40.7495 211.991 40.3947C212.195 40.0464 212.471 39.7704 212.819 39.5798C213.167 39.3893 213.561 39.2907 213.994 39.2907C214.427 39.2907 214.814 39.3893 215.169 39.5798C215.523 39.7704 215.799 40.0464 215.996 40.3947C216.2 40.7429 216.298 41.1504 216.298 41.6103C216.298 42.0703 216.193 42.4777 215.99 42.826C215.78 43.1743 215.504 43.4503 215.149 43.6409C214.795 43.8314 214.401 43.93 213.961 43.93C213.521 43.93 213.14 43.8314 212.799 43.6409ZM214.545 42.7932C214.723 42.6946 214.867 42.5435 214.979 42.3463C215.084 42.1492 215.143 41.9061 215.143 41.6169C215.143 41.1898 215.031 40.8612 214.808 40.6312C214.585 40.4012 214.309 40.2895 213.987 40.2895C213.666 40.2895 213.396 40.4078 213.173 40.6312C212.957 40.8612 212.845 41.1898 212.845 41.6169C212.845 42.0441 212.95 42.3726 213.167 42.6026C213.377 42.8326 213.646 42.9443 213.974 42.9443C214.178 42.9443 214.375 42.8917 214.552 42.7932H214.545Z" fill="#151515"/>
<path d="M223.349 39.3696L222.036 43.8577H220.815L220.001 40.7233L219.187 43.8577H217.959L216.64 39.3696H217.789L218.583 42.7866L219.443 39.3696H220.638L221.478 42.7801L222.273 39.3696H223.356H223.349Z" fill="#151515"/>
<path d="M228.103 41.9521H224.827C224.854 42.274 224.965 42.5303 225.169 42.7143C225.366 42.8983 225.615 42.9903 225.904 42.9903C226.324 42.9903 226.626 42.8063 226.803 42.4449H228.025C227.893 42.8786 227.644 43.2334 227.276 43.5094C226.908 43.7854 226.462 43.9234 225.924 43.9234C225.49 43.9234 225.103 43.8248 224.762 43.6343C224.42 43.4437 224.151 43.1743 223.961 42.8195C223.77 42.4712 223.672 42.0638 223.672 41.6038C223.672 41.1438 223.764 40.7298 223.954 40.3815C224.145 40.0333 224.407 39.7638 224.749 39.5733C225.09 39.3827 225.477 39.2907 225.924 39.2907C226.37 39.2907 226.731 39.3827 227.066 39.5667C227.401 39.7507 227.663 40.0135 227.854 40.3487C228.044 40.6838 228.136 41.0715 228.136 41.5118C228.136 41.6761 228.123 41.8206 228.103 41.9521ZM226.961 41.1964C226.961 40.9072 226.849 40.6707 226.646 40.4932C226.442 40.3158 226.193 40.2304 225.891 40.2304C225.609 40.2304 225.372 40.3158 225.182 40.4867C224.991 40.6575 224.873 40.8941 224.827 41.1964H226.954H226.961Z" fill="#151515"/>
<path d="M230.664 39.5076C230.9 39.3696 231.169 39.3039 231.471 39.3039V40.4933H231.169C230.815 40.4933 230.546 40.5787 230.362 40.743C230.178 40.9138 230.093 41.203 230.093 41.617V43.8512H228.957V39.363H230.093V40.0596C230.237 39.823 230.428 39.6325 230.664 39.501V39.5076Z" fill="#151515"/>
<path d="M235.041 43.7132C234.726 43.5817 234.477 43.3846 234.293 43.1283C234.109 42.8721 234.017 42.5763 234.011 42.2281H235.225C235.238 42.4581 235.324 42.6421 235.475 42.7801C235.619 42.918 235.829 42.9838 236.085 42.9838C236.341 42.9838 236.558 42.9181 236.709 42.7932C236.86 42.6683 236.939 42.4975 236.939 42.2938C236.939 42.1295 236.886 41.9915 236.781 41.8798C236.676 41.7747 236.551 41.6892 236.4 41.6235C236.243 41.5644 236.033 41.4921 235.764 41.4198C235.396 41.3147 235.101 41.203 234.871 41.0978C234.641 40.9927 234.444 40.835 234.28 40.6181C234.116 40.4078 234.037 40.1187 234.037 39.7639C234.037 39.4287 234.122 39.1396 234.286 38.8899C234.451 38.6402 234.687 38.4496 234.989 38.3182C235.291 38.1868 235.639 38.1211 236.026 38.1211C236.611 38.1211 237.083 38.2656 237.444 38.5482C237.805 38.8308 238.009 39.225 238.048 39.7376H236.801C236.788 39.5404 236.709 39.3827 236.551 39.2579C236.4 39.133 236.197 39.0673 235.941 39.0673C235.718 39.0673 235.547 39.1265 235.409 39.2382C235.278 39.3499 235.212 39.5142 235.212 39.731C235.212 39.8821 235.258 40.007 235.363 40.1056C235.462 40.2041 235.586 40.2896 235.737 40.3487C235.888 40.4144 236.092 40.4801 236.368 40.5656C236.735 40.6707 237.031 40.7824 237.267 40.8875C237.497 40.9927 237.7 41.157 237.864 41.3738C238.029 41.5907 238.114 41.8732 238.114 42.2215C238.114 42.5238 238.035 42.8063 237.878 43.0626C237.72 43.3189 237.49 43.5292 237.188 43.6803C236.886 43.8314 236.525 43.9103 236.112 43.9103C235.718 43.9103 235.363 43.8446 235.048 43.7066L235.041 43.7132Z" fill="#151515"/>
<path d="M239.906 43.6409C239.558 43.4503 239.289 43.1809 239.092 42.826C238.895 42.4777 238.797 42.0703 238.797 41.6103C238.797 41.1504 238.902 40.7495 239.099 40.3947C239.302 40.0464 239.578 39.7704 239.926 39.5798C240.274 39.3893 240.668 39.2907 241.101 39.2907C241.535 39.2907 241.922 39.3893 242.276 39.5798C242.631 39.7704 242.907 40.0464 243.104 40.3947C243.307 40.7429 243.406 41.1504 243.406 41.6103C243.406 42.0703 243.301 42.4777 243.097 42.826C242.887 43.1743 242.611 43.4503 242.257 43.6409C241.902 43.8314 241.508 43.93 241.068 43.93C240.629 43.93 240.248 43.8314 239.906 43.6409ZM241.653 42.7932C241.83 42.6946 241.974 42.5435 242.086 42.3463C242.191 42.1492 242.25 41.9061 242.25 41.6169C242.25 41.1898 242.139 40.8612 241.915 40.6312C241.692 40.4012 241.416 40.2895 241.095 40.2895C240.773 40.2895 240.504 40.4078 240.281 40.6312C240.064 40.8612 239.952 41.1898 239.952 41.6169C239.952 42.0441 240.057 42.3726 240.274 42.6026C240.484 42.8326 240.753 42.9443 241.082 42.9443C241.285 42.9443 241.482 42.8917 241.659 42.7932H241.653Z" fill="#151515"/>
<path d="M245.384 37.8648V43.8578H244.248V37.8648H245.384Z" fill="#151515"/>
<path d="M250.725 39.3696V43.8577H249.583V43.2926C249.438 43.4898 249.248 43.6409 249.012 43.7526C248.775 43.8643 248.519 43.9169 248.25 43.9169C247.902 43.9169 247.587 43.8446 247.318 43.6935C247.049 43.5423 246.838 43.3255 246.681 43.0363C246.523 42.7472 246.451 42.4055 246.451 42.0047V39.3696H247.587V41.8404C247.587 42.1952 247.679 42.4712 247.856 42.6618C248.033 42.8523 248.276 42.9509 248.585 42.9509C248.893 42.9509 249.143 42.8523 249.32 42.6618C249.497 42.4712 249.589 42.1952 249.589 41.8404V39.3696H250.732H250.725Z" fill="#151515"/>
<path d="M253.163 40.3027V42.4712C253.163 42.6223 253.202 42.734 253.274 42.7998C253.346 42.8655 253.471 42.8983 253.642 42.8983H254.167V43.8511H253.458C252.5 43.8511 252.027 43.3846 252.027 42.4581V40.2961H251.495V39.363H252.027V38.2525H253.169V39.363H254.174V40.2961H253.169L253.163 40.3027Z" fill="#151515"/>
<path d="M255.06 38.6467C254.929 38.5219 254.863 38.3641 254.863 38.1736C254.863 37.983 254.929 37.8253 255.06 37.7005C255.192 37.5756 255.356 37.5099 255.559 37.5099C255.763 37.5099 255.927 37.5756 256.058 37.7005C256.189 37.8253 256.255 37.983 256.255 38.1736C256.255 38.3641 256.189 38.5219 256.058 38.6467C255.927 38.7716 255.756 38.8373 255.559 38.8373C255.362 38.8373 255.192 38.7716 255.06 38.6467ZM256.117 39.3695V43.8577H254.981V39.3695H256.117Z" fill="#151515"/>
<path d="M258.06 43.6409C257.712 43.4503 257.443 43.1809 257.246 42.826C257.049 42.4777 256.95 42.0703 256.95 41.6103C256.95 41.1504 257.055 40.7495 257.252 40.3947C257.456 40.0464 257.731 39.7704 258.079 39.5798C258.427 39.3893 258.821 39.2907 259.255 39.2907C259.688 39.2907 260.075 39.3893 260.43 39.5798C260.784 39.7704 261.06 40.0464 261.257 40.3947C261.46 40.7429 261.559 41.1504 261.559 41.6103C261.559 42.0703 261.454 42.4777 261.25 42.826C261.04 43.1743 260.765 43.4503 260.41 43.6409C260.056 43.8314 259.662 43.93 259.222 43.93C258.782 43.93 258.401 43.8314 258.06 43.6409ZM259.806 42.7932C259.983 42.6946 260.128 42.5435 260.239 42.3463C260.344 42.1492 260.403 41.9061 260.403 41.6169C260.403 41.1898 260.292 40.8612 260.069 40.6312C259.845 40.4012 259.57 40.2895 259.248 40.2895C258.926 40.2895 258.657 40.4078 258.434 40.6312C258.217 40.8612 258.106 41.1898 258.106 41.6169C258.106 42.0441 258.211 42.3726 258.427 42.6026C258.637 42.8326 258.907 42.9443 259.235 42.9443C259.438 42.9443 259.635 42.8917 259.813 42.7932H259.806Z" fill="#151515"/>
<path d="M266.175 39.8099C266.503 40.145 266.667 40.6181 266.667 41.2227V43.8577H265.531V41.3804C265.531 41.0255 265.439 40.7496 265.262 40.559C265.085 40.3684 264.842 40.2699 264.533 40.2699C264.225 40.2699 263.975 40.3684 263.792 40.559C263.608 40.7496 263.522 41.0255 263.522 41.3804V43.8577H262.387V39.3696H263.522V39.9282C263.673 39.731 263.864 39.5799 264.1 39.4682C264.337 39.3565 264.593 39.3039 264.875 39.3039C265.407 39.3039 265.84 39.4747 266.168 39.8099H266.175Z" fill="#151515"/>
<path d="M268.473 43.7329C268.184 43.6015 267.947 43.4175 267.783 43.1941C267.613 42.9641 267.521 42.7144 267.501 42.4384H268.643C268.663 42.6093 268.748 42.7538 268.899 42.8655C269.05 42.9772 269.234 43.0364 269.457 43.0364C269.681 43.0364 269.838 42.9904 269.963 42.905C270.088 42.8195 270.147 42.7078 270.147 42.5698C270.147 42.4253 270.074 42.3135 269.924 42.2413C269.773 42.169 269.536 42.0901 269.214 42.0047C268.88 41.9258 268.604 41.8404 268.394 41.755C268.184 41.6696 268 41.5381 267.842 41.3607C267.685 41.1833 267.613 40.9402 267.613 40.6379C267.613 40.3882 267.685 40.1648 267.829 39.9611C267.974 39.7573 268.177 39.5931 268.446 39.4748C268.716 39.3565 269.031 39.2974 269.392 39.2974C269.924 39.2974 270.35 39.4288 270.672 39.6982C270.987 39.9676 271.164 40.329 271.197 40.7825H270.114C270.101 40.605 270.022 40.4605 269.891 40.3553C269.759 40.2502 269.582 40.1976 269.359 40.1976C269.155 40.1976 268.998 40.237 268.886 40.3093C268.775 40.3816 268.722 40.4933 268.722 40.6247C268.722 40.7759 268.801 40.8942 268.952 40.9665C269.103 41.0453 269.339 41.1242 269.654 41.203C269.976 41.2819 270.245 41.3673 270.455 41.4527C270.665 41.5381 270.849 41.6696 271 41.8536C271.158 42.031 271.237 42.2741 271.237 42.5698C271.237 42.8261 271.164 43.0627 271.02 43.2664C270.875 43.4701 270.672 43.6344 270.403 43.7461C270.134 43.8644 269.825 43.9235 269.471 43.9235C269.116 43.9235 268.775 43.8578 268.486 43.7264L268.473 43.7329Z" fill="#151515"/>
<path d="M305.46 18.3351C305.847 18.5586 306.149 18.8674 306.373 19.2617C306.596 19.656 306.701 20.0962 306.701 20.5825C306.701 21.0688 306.589 21.5156 306.373 21.9099C306.156 22.3041 305.847 22.613 305.46 22.8364C305.073 23.0598 304.633 23.1715 304.147 23.1715C303.661 23.1715 303.208 23.0598 302.821 22.8364C302.434 22.613 302.132 22.3041 301.908 21.9099C301.685 21.5156 301.58 21.0688 301.58 20.5825C301.58 20.0962 301.692 19.656 301.908 19.2617C302.125 18.8674 302.434 18.5586 302.821 18.3351C303.208 18.1117 303.648 18 304.147 18C304.646 18 305.073 18.1117 305.46 18.3351ZM305.618 22.0873C305.992 21.6996 306.182 21.2002 306.182 20.5825C306.182 19.9648 305.992 19.4654 305.618 19.0777C305.243 18.69 304.751 18.4928 304.147 18.4928C303.543 18.4928 303.044 18.6834 302.676 19.0777C302.309 19.472 302.125 19.9714 302.125 20.5825C302.125 21.1936 302.309 21.6996 302.676 22.0873C303.044 22.475 303.537 22.6721 304.147 22.6721C304.758 22.6721 305.243 22.4816 305.618 22.0873ZM305.125 20.5562C305.02 20.6942 304.876 20.7928 304.692 20.8519L305.401 21.9033L304.607 21.9164L304.003 20.9045H303.786V21.9164H303.129V19.196H304.344C304.633 19.196 304.863 19.2748 305.033 19.426C305.204 19.5771 305.289 19.7874 305.289 20.0436C305.289 20.2474 305.237 20.4182 305.132 20.5562H305.125ZM303.779 20.3656H304.298C304.39 20.3656 304.469 20.3394 304.534 20.2868C304.6 20.2342 304.626 20.1619 304.626 20.0699C304.626 19.9779 304.593 19.9057 304.534 19.8597C304.469 19.8137 304.397 19.7939 304.298 19.7939H303.779V20.3656Z" fill="#151515"/>
<path d="M40.5 37.5H55.5" stroke="#151515" stroke-linecap="round" stroke-linejoin="round"/>
<path d="M40.5 32H55.5" stroke="#151515" stroke-linecap="round" stroke-linejoin="round"/>
<path d="M40.5 26.5H55.5" stroke="#151515" stroke-linecap="round" stroke-linejoin="round"/>
<path d="M88.8925 36.9199L91.9727 40M91.0838 31.5811C91.0838 35.768 87.701 39.1622 83.5282 39.1622C79.3554 39.1622 75.9727 35.768 75.9727 31.5811C75.9727 27.3942 79.3554 24 83.5282 24C87.701 24 91.0838 27.3942 91.0838 31.5811Z" stroke="#151515" stroke-linecap="round" stroke-linejoin="round"/>
<path d="M350.5 40.5C350.025 31.1667 335.975 31.1667 335.5 40.5" stroke="#151515" stroke-linecap="round" stroke-linejoin="round"/>
<circle cx="343" cy="28" r="3" stroke="#151515" stroke-linecap="round" stroke-linejoin="round"/>
<path d="M375.935 27H374.773C373.701 27 372.811 27.8109 372.735 28.8575L372.005 38.8575C371.921 40.0152 372.858 41 374.043 41H383.957C385.142 41 386.079 40.0152 385.995 38.8575L385.265 28.8575C385.189 27.8109 384.299 27 383.227 27H382.065M375.935 27V25C375.935 23.8954 376.85 23 377.978 23H380.022C381.15 23 382.065 23.8954 382.065 25V27M375.935 27H382.065" stroke="#151515" stroke-linecap="round" stroke-linejoin="round"/>
<circle cx="386" cy="27" r="7.5" fill="#151515" stroke="white"/>
<path d="M384.36 25V23.71H386.77V31H385.33V25H384.36Z" fill="white"/>
<rect x="20" y="63" width="390" height="1" fill="#F2F2F2"/>
</g>
<defs>
<filter id="filter0_d_807_2941" x="0" y="0" width="430" height="104" filterUnits="userSpaceOnUse" color-interpolation-filters="sRGB">
<feFlood flood-opacity="0" result="BackgroundImageFix"/>
<feColorMatrix in="SourceAlpha" type="matrix" values="0 0 0 0 0 0 0 0 0 0 0 0 0 0 0 0 0 0 127 0" result="hardAlpha"/>
<feOffset dy="20"/>
<feGaussianBlur stdDeviation="10"/>
<feComposite in2="hardAlpha" operator="out"/>
<feColorMatrix type="matrix" values="0 0 0 0 0 0 0 0 0 0 0 0 0 0 0 0 0 0 0.03 0"/>
<feBlend mode="normal" in2="BackgroundImageFix" result="effect1_dropShadow_807_2941"/>
<feBlend mode="normal" in="SourceGraphic" in2="effect1_dropShadow_807_2941" result="shape"/>
</filter>
</defs>
</svg>
