<svg width="390" height="40" viewBox="0 0 390 40" fill="none" xmlns="http://www.w3.org/2000/svg">
<rect width="390" height="40" fill="#02267E"/>
<path d="M101.652 16.136V17.024H98.016V19.844H100.968V20.732H98.016V24.5H96.924V16.136H101.652ZM107.375 24.5L105.383 21.08H104.063V24.5H102.971V16.136L105.671 16.136C106.303 16.136 106.835 16.244 107.267 16.46C107.707 16.676 108.035 16.968 108.251 17.336C108.467 17.704 108.575 18.124 108.575 18.596C108.575 19.172 108.407 19.68 108.071 20.12C107.743 20.56 107.247 20.852 106.583 20.996L108.683 24.5H107.375ZM104.063 20.204H105.671C106.263 20.204 106.707 20.06 107.003 19.772C107.299 19.476 107.447 19.084 107.447 18.596C107.447 18.1 107.299 17.716 107.003 17.444C106.715 17.172 106.271 17.036 105.671 17.036L104.063 17.036V20.204ZM111.364 17.024V19.82L114.412 19.82V20.72L111.364 20.72V23.6L114.772 23.6V24.5L110.272 24.5V16.124H114.772V17.024H111.364ZM117.516 17.024V19.82H120.564V20.72H117.516V23.6H120.924V24.5H116.424V16.124H120.924V17.024H117.516ZM132.112 18.56C131.88 18.072 131.544 17.696 131.104 17.432C130.664 17.16 130.152 17.024 129.568 17.024C128.984 17.024 128.456 17.16 127.984 17.432C127.52 17.696 127.152 18.08 126.88 18.584C126.616 19.08 126.484 19.656 126.484 20.312C126.484 20.968 126.616 21.544 126.88 22.04C127.152 22.536 127.52 22.92 127.984 23.192C128.456 23.456 128.984 23.588 129.568 23.588C130.384 23.588 131.056 23.344 131.584 22.856C132.112 22.368 132.42 21.708 132.508 20.876H129.172V19.988H133.672V20.828C133.608 21.516 133.392 22.148 133.024 22.724C132.656 23.292 132.172 23.744 131.572 24.08C130.972 24.408 130.304 24.572 129.568 24.572C128.792 24.572 128.084 24.392 127.444 24.032C126.804 23.664 126.296 23.156 125.92 22.508C125.552 21.86 125.368 21.128 125.368 20.312C125.368 19.496 125.552 18.764 125.92 18.116C126.296 17.46 126.804 16.952 127.444 16.592C128.084 16.224 128.792 16.04 129.568 16.04C130.456 16.04 131.24 16.26 131.92 16.7C132.608 17.14 133.108 17.76 133.42 18.56H132.112ZM136.207 18.992C136.399 18.616 136.671 18.324 137.023 18.116C137.383 17.908 137.819 17.804 138.331 17.804V18.932H138.043C136.819 18.932 136.207 19.596 136.207 20.924V24.5L135.115 24.5V17.924H136.207V18.992ZM142.46 24.608C141.844 24.608 141.284 24.468 140.78 24.188C140.284 23.908 139.892 23.512 139.604 23C139.324 22.48 139.184 21.88 139.184 21.2C139.184 20.528 139.328 19.936 139.616 19.424C139.912 18.904 140.312 18.508 140.816 18.236C141.32 17.956 141.884 17.816 142.508 17.816C143.132 17.816 143.696 17.956 144.2 18.236C144.704 18.508 145.1 18.9 145.388 19.412C145.684 19.924 145.832 20.52 145.832 21.2C145.832 21.88 145.68 22.48 145.376 23C145.08 23.512 144.676 23.908 144.164 24.188C143.652 24.468 143.084 24.608 142.46 24.608ZM142.46 23.648C142.852 23.648 143.22 23.556 143.564 23.372C143.908 23.188 144.184 22.912 144.392 22.544C144.608 22.176 144.716 21.728 144.716 21.2C144.716 20.672 144.612 20.224 144.404 19.856C144.196 19.488 143.924 19.216 143.588 19.04C143.252 18.856 142.888 18.764 142.496 18.764C142.096 18.764 141.728 18.856 141.392 19.04C141.064 19.216 140.8 19.488 140.6 19.856C140.4 20.224 140.3 20.672 140.3 21.2C140.3 21.736 140.396 22.188 140.588 22.556C140.788 22.924 141.052 23.2 141.38 23.384C141.708 23.56 142.068 23.648 142.46 23.648ZM153.1 17.924V24.5H152.008V23.528C151.8 23.864 151.508 24.128 151.132 24.32C150.764 24.504 150.356 24.596 149.908 24.596C149.396 24.596 148.936 24.492 148.528 24.284C148.12 24.068 147.796 23.748 147.556 23.324C147.324 22.9 147.208 22.384 147.208 21.776V17.924H148.288V21.632C148.288 22.28 148.452 22.78 148.78 23.132C149.108 23.476 149.556 23.648 150.124 23.648C150.708 23.648 151.168 23.468 151.504 23.108C151.84 22.748 152.008 22.224 152.008 21.536V17.924H153.1ZM158.148 17.804C158.948 17.804 159.596 18.048 160.092 18.536C160.588 19.016 160.836 19.712 160.836 20.624V24.5H159.756V20.78C159.756 20.124 159.592 19.624 159.264 19.28C158.936 18.928 158.488 18.752 157.92 18.752C157.344 18.752 156.884 18.932 156.54 19.292C156.204 19.652 156.036 20.176 156.036 20.864V24.5H154.944V17.924H156.036V18.86C156.252 18.524 156.544 18.264 156.912 18.08C157.288 17.896 157.7 17.804 158.148 17.804ZM162.211 21.188C162.211 20.516 162.347 19.928 162.619 19.424C162.891 18.912 163.263 18.516 163.735 18.236C164.215 17.956 164.751 17.816 165.343 17.816C165.855 17.816 166.331 17.936 166.771 18.176C167.211 18.408 167.547 18.716 167.779 19.1V15.62H168.883V24.5H167.779V23.264C167.563 23.656 167.243 23.98 166.819 24.236C166.395 24.484 165.899 24.608 165.331 24.608C164.747 24.608 164.215 24.464 163.735 24.176C163.263 23.888 162.891 23.484 162.619 22.964C162.347 22.444 162.211 21.852 162.211 21.188ZM167.779 21.2C167.779 20.704 167.679 20.272 167.479 19.904C167.279 19.536 167.007 19.256 166.663 19.064C166.327 18.864 165.955 18.764 165.547 18.764C165.139 18.764 164.767 18.86 164.431 19.052C164.095 19.244 163.827 19.524 163.627 19.892C163.427 20.26 163.327 20.692 163.327 21.188C163.327 21.692 163.427 22.132 163.627 22.508C163.827 22.876 164.095 23.16 164.431 23.36C164.767 23.552 165.139 23.648 165.547 23.648C165.955 23.648 166.327 23.552 166.663 23.36C167.007 23.16 167.279 22.876 167.479 22.508C167.679 22.132 167.779 21.696 167.779 21.2ZM176.58 24.584C176.028 24.584 175.532 24.488 175.092 24.296C174.66 24.096 174.32 23.824 174.072 23.48C173.824 23.128 173.696 22.724 173.688 22.268H174.852C174.892 22.66 175.052 22.992 175.332 23.264C175.62 23.528 176.036 23.66 176.58 23.66C177.1 23.66 177.508 23.532 177.804 23.276C178.108 23.012 178.26 22.676 178.26 22.268C178.26 21.948 178.172 21.688 177.996 21.488C177.82 21.288 177.6 21.136 177.336 21.032C177.072 20.928 176.716 20.816 176.268 20.696C175.716 20.552 175.272 20.408 174.936 20.264C174.608 20.12 174.324 19.896 174.084 19.592C173.852 19.28 173.736 18.864 173.736 18.344C173.736 17.888 173.852 17.484 174.084 17.132C174.316 16.78 174.64 16.508 175.056 16.316C175.48 16.124 175.964 16.028 176.508 16.028C177.292 16.028 177.932 16.224 178.428 16.616C178.932 17.008 179.216 17.528 179.28 18.176H178.08C178.04 17.856 177.872 17.576 177.576 17.336C177.28 17.088 176.888 16.964 176.4 16.964C175.944 16.964 175.572 17.084 175.284 17.324C174.996 17.556 174.852 17.884 174.852 18.308C174.852 18.612 174.936 18.86 175.104 19.052C175.28 19.244 175.492 19.392 175.74 19.496C175.996 19.592 176.352 19.704 176.808 19.832C177.36 19.984 177.804 20.136 178.14 20.288C178.476 20.432 178.764 20.66 179.004 20.972C179.244 21.276 179.364 21.692 179.364 22.22C179.364 22.628 179.256 23.012 179.04 23.372C178.824 23.732 178.504 24.024 178.08 24.248C177.656 24.472 177.156 24.584 176.58 24.584ZM184.235 17.804C184.731 17.804 185.179 17.912 185.579 18.128C185.979 18.336 186.291 18.652 186.515 19.076C186.747 19.5 186.863 20.016 186.863 20.624V24.5H185.783V20.78C185.783 20.124 185.619 19.624 185.291 19.28C184.963 18.928 184.515 18.752 183.947 18.752C183.371 18.752 182.911 18.932 182.567 19.292C182.231 19.652 182.063 20.176 182.063 20.864V24.5H180.971V15.62H182.063V18.86C182.279 18.524 182.575 18.264 182.951 18.08C183.335 17.896 183.763 17.804 184.235 17.804ZM189.211 16.856C189.003 16.856 188.827 16.784 188.683 16.64C188.539 16.496 188.467 16.32 188.467 16.112C188.467 15.904 188.539 15.728 188.683 15.584C188.827 15.44 189.003 15.368 189.211 15.368C189.411 15.368 189.579 15.44 189.715 15.584C189.859 15.728 189.931 15.904 189.931 16.112C189.931 16.32 189.859 16.496 189.715 16.64C189.579 16.784 189.411 16.856 189.211 16.856ZM189.739 17.924V24.5H188.647V17.924H189.739ZM192.692 19.136C192.908 18.76 193.228 18.448 193.652 18.2C194.084 17.944 194.584 17.816 195.152 17.816C195.736 17.816 196.264 17.956 196.736 18.236C197.216 18.516 197.592 18.912 197.864 19.424C198.136 19.928 198.272 20.516 198.272 21.188C198.272 21.852 198.136 22.444 197.864 22.964C197.592 23.484 197.216 23.888 196.736 24.176C196.264 24.464 195.736 24.608 195.152 24.608C194.592 24.608 194.096 24.484 193.664 24.236C193.24 23.98 192.916 23.664 192.692 23.288V27.62H191.6V17.924L192.692 17.924V19.136ZM197.156 21.188C197.156 20.692 197.056 20.26 196.856 19.892C196.656 19.524 196.384 19.244 196.04 19.052C195.704 18.86 195.332 18.764 194.924 18.764C194.524 18.764 194.152 18.864 193.808 19.064C193.472 19.256 193.2 19.54 192.992 19.916C192.792 20.284 192.692 20.712 192.692 21.2C192.692 21.696 192.792 22.132 192.992 22.508C193.2 22.876 193.472 23.16 193.808 23.36C194.152 23.552 194.524 23.648 194.924 23.648C195.332 23.648 195.704 23.552 196.04 23.36C196.384 23.16 196.656 22.876 196.856 22.508C197.056 22.132 197.156 21.692 197.156 21.188ZM200.801 19.136C201.017 18.76 201.337 18.448 201.761 18.2C202.193 17.944 202.693 17.816 203.261 17.816C203.845 17.816 204.373 17.956 204.845 18.236C205.325 18.516 205.701 18.912 205.973 19.424C206.245 19.928 206.381 20.516 206.381 21.188C206.381 21.852 206.245 22.444 205.973 22.964C205.701 23.484 205.325 23.888 204.845 24.176C204.373 24.464 203.845 24.608 203.261 24.608C202.701 24.608 202.205 24.484 201.773 24.236C201.349 23.98 201.025 23.664 200.801 23.288V27.62H199.709V17.924H200.801V19.136ZM205.265 21.188C205.265 20.692 205.165 20.26 204.965 19.892C204.765 19.524 204.493 19.244 204.149 19.052C203.813 18.86 203.441 18.764 203.033 18.764C202.633 18.764 202.261 18.864 201.917 19.064C201.581 19.256 201.309 19.54 201.101 19.916C200.901 20.284 200.801 20.712 200.801 21.2C200.801 21.696 200.901 22.132 201.101 22.508C201.309 22.876 201.581 23.16 201.917 23.36C202.261 23.552 202.633 23.648 203.033 23.648C203.441 23.648 203.813 23.552 204.149 23.36C204.493 23.16 204.765 22.876 204.965 22.508C205.165 22.132 205.265 21.692 205.265 21.188ZM208.383 16.856C208.175 16.856 207.999 16.784 207.855 16.64C207.711 16.496 207.639 16.32 207.639 16.112C207.639 15.904 207.711 15.728 207.855 15.584C207.999 15.44 208.175 15.368 208.383 15.368C208.583 15.368 208.751 15.44 208.887 15.584C209.031 15.728 209.103 15.904 209.103 16.112C209.103 16.32 209.031 16.496 208.887 16.64C208.751 16.784 208.583 16.856 208.383 16.856ZM208.911 17.924V24.5H207.819V17.924H208.911ZM213.976 17.804C214.776 17.804 215.424 18.048 215.92 18.536C216.416 19.016 216.664 19.712 216.664 20.624V24.5H215.584V20.78C215.584 20.124 215.42 19.624 215.092 19.28C214.764 18.928 214.316 18.752 213.748 18.752C213.172 18.752 212.712 18.932 212.368 19.292C212.032 19.652 211.864 20.176 211.864 20.864V24.5H210.772V17.924H211.864V18.86C212.08 18.524 212.372 18.264 212.74 18.08C213.116 17.896 213.528 17.804 213.976 17.804ZM221.159 17.816C221.727 17.816 222.223 17.94 222.647 18.188C223.079 18.436 223.399 18.748 223.607 19.124V17.924H224.711V24.644C224.711 25.244 224.583 25.776 224.327 26.24C224.071 26.712 223.703 27.08 223.223 27.344C222.751 27.608 222.199 27.74 221.567 27.74C220.703 27.74 219.983 27.536 219.407 27.128C218.831 26.72 218.491 26.164 218.387 25.46H219.467C219.587 25.86 219.835 26.18 220.211 26.42C220.587 26.668 221.039 26.792 221.567 26.792C222.167 26.792 222.655 26.604 223.031 26.228C223.415 25.852 223.607 25.324 223.607 24.644V23.264C223.391 23.648 223.071 23.968 222.647 24.224C222.223 24.48 221.727 24.608 221.159 24.608C220.575 24.608 220.043 24.464 219.563 24.176C219.091 23.888 218.719 23.484 218.447 22.964C218.175 22.444 218.039 21.852 218.039 21.188C218.039 20.516 218.175 19.928 218.447 19.424C218.719 18.912 219.091 18.516 219.563 18.236C220.043 17.956 220.575 17.816 221.159 17.816ZM223.607 21.2C223.607 20.704 223.507 20.272 223.307 19.904C223.107 19.536 222.835 19.256 222.491 19.064C222.155 18.864 221.783 18.764 221.375 18.764C220.967 18.764 220.595 18.86 220.259 19.052C219.923 19.244 219.655 19.524 219.455 19.892C219.255 20.26 219.155 20.692 219.155 21.188C219.155 21.692 219.255 22.132 219.455 22.508C219.655 22.876 219.923 23.16 220.259 23.36C220.595 23.552 220.967 23.648 221.375 23.648C221.783 23.648 222.155 23.552 222.491 23.36C222.835 23.16 223.107 22.876 223.307 22.508C223.507 22.132 223.607 21.696 223.607 21.2Z" fill="white"/>
<path d="M294 28.5V28H234V28.5V29H294V28.5Z" fill="white"/>
<path d="M237.919 24.584C237.335 24.584 236.807 24.484 236.335 24.284C235.871 24.084 235.503 23.796 235.231 23.42C234.959 23.044 234.819 22.6 234.811 22.088H236.611C236.635 22.432 236.755 22.704 236.971 22.904C237.195 23.104 237.499 23.204 237.883 23.204C238.275 23.204 238.583 23.112 238.807 22.928C239.031 22.736 239.143 22.488 239.143 22.184C239.143 21.936 239.067 21.732 238.915 21.572C238.763 21.412 238.571 21.288 238.339 21.2C238.115 21.104 237.803 21 237.403 20.888C236.859 20.728 236.415 20.572 236.071 20.42C235.735 20.26 235.443 20.024 235.195 19.712C234.955 19.392 234.835 18.968 234.835 18.44C234.835 17.944 234.959 17.512 235.207 17.144C235.455 16.776 235.803 16.496 236.251 16.304C236.699 16.104 237.211 16.004 237.787 16.004C238.651 16.004 239.351 16.216 239.887 16.64C240.431 17.056 240.731 17.64 240.787 18.392H238.939C238.923 18.104 238.799 17.868 238.567 17.684C238.343 17.492 238.043 17.396 237.667 17.396C237.339 17.396 237.075 17.48 236.875 17.648C236.683 17.816 236.587 18.06 236.587 18.38C236.587 18.604 236.659 18.792 236.803 18.944C236.955 19.088 237.139 19.208 237.355 19.304C237.579 19.392 237.891 19.496 238.291 19.616C238.835 19.776 239.279 19.936 239.623 20.096C239.967 20.256 240.263 20.496 240.511 20.816C240.759 21.136 240.883 21.556 240.883 22.076C240.883 22.524 240.767 22.94 240.535 23.324C240.303 23.708 239.963 24.016 239.515 24.248C239.067 24.472 238.535 24.584 237.919 24.584ZM246.084 17.756C246.588 17.756 247.036 17.868 247.428 18.092C247.82 18.308 248.124 18.632 248.34 19.064C248.564 19.488 248.676 20 248.676 20.6V24.5H246.996V20.828C246.996 20.3 246.864 19.896 246.6 19.616C246.336 19.328 245.976 19.184 245.52 19.184C245.056 19.184 244.688 19.328 244.416 19.616C244.152 19.896 244.02 20.3 244.02 20.828V24.5H242.34V15.62H244.02V18.68C244.236 18.392 244.524 18.168 244.884 18.008C245.244 17.84 245.644 17.756 246.084 17.756ZM253.225 24.608C252.585 24.608 252.009 24.468 251.497 24.188C250.985 23.9 250.581 23.496 250.285 22.976C249.997 22.456 249.853 21.856 249.853 21.176C249.853 20.496 250.001 19.896 250.297 19.376C250.601 18.856 251.013 18.456 251.533 18.176C252.053 17.888 252.633 17.744 253.273 17.744C253.913 17.744 254.493 17.888 255.013 18.176C255.533 18.456 255.941 18.856 256.237 19.376C256.541 19.896 256.693 20.496 256.693 21.176C256.693 21.856 256.537 22.456 256.225 22.976C255.921 23.496 255.505 23.9 254.977 24.188C254.457 24.468 253.873 24.608 253.225 24.608ZM253.225 23.144C253.529 23.144 253.813 23.072 254.077 22.928C254.349 22.776 254.565 22.552 254.725 22.256C254.885 21.96 254.965 21.6 254.965 21.176C254.965 20.544 254.797 20.06 254.461 19.724C254.133 19.38 253.729 19.208 253.249 19.208C252.769 19.208 252.365 19.38 252.037 19.724C251.717 20.06 251.557 20.544 251.557 21.176C251.557 21.808 251.713 22.296 252.025 22.64C252.345 22.976 252.745 23.144 253.225 23.144ZM259.606 18.812C259.822 18.508 260.118 18.256 260.494 18.056C260.878 17.848 261.314 17.744 261.802 17.744C262.37 17.744 262.882 17.884 263.338 18.164C263.802 18.444 264.166 18.844 264.43 19.364C264.702 19.876 264.838 20.472 264.838 21.152C264.838 21.832 264.702 22.436 264.43 22.964C264.166 23.484 263.802 23.888 263.338 24.176C262.882 24.464 262.37 24.608 261.802 24.608C261.314 24.608 260.882 24.508 260.506 24.308C260.138 24.108 259.838 23.856 259.606 23.552V27.668H257.926V17.852H259.606V18.812ZM263.122 21.152C263.122 20.752 263.038 20.408 262.87 20.12C262.71 19.824 262.494 19.6 262.222 19.448C261.958 19.296 261.67 19.22 261.358 19.22C261.054 19.22 260.766 19.3 260.494 19.46C260.23 19.612 260.014 19.836 259.846 20.132C259.686 20.428 259.606 20.776 259.606 21.176C259.606 21.576 259.686 21.924 259.846 22.22C260.014 22.516 260.23 22.744 260.494 22.904C260.766 23.056 261.054 23.132 261.358 23.132C261.67 23.132 261.958 23.052 262.222 22.892C262.494 22.732 262.71 22.504 262.87 22.208C263.038 21.912 263.122 21.56 263.122 21.152ZM272.602 17.756C273.394 17.756 274.034 18.008 274.522 18.512C275.01 19.008 275.254 19.704 275.254 20.6V24.5H273.574V20.828C273.574 20.3 273.442 19.896 273.178 19.616C272.914 19.328 272.554 19.184 272.098 19.184C271.634 19.184 271.266 19.328 270.994 19.616C270.73 19.896 270.598 20.3 270.598 20.828V24.5H268.918V17.852H270.598V18.68C270.822 18.392 271.106 18.168 271.45 18.008C271.802 17.84 272.186 17.756 272.602 17.756ZM279.803 24.608C279.163 24.608 278.587 24.468 278.075 24.188C277.563 23.9 277.159 23.496 276.863 22.976C276.575 22.456 276.431 21.856 276.431 21.176C276.431 20.496 276.579 19.896 276.875 19.376C277.179 18.856 277.591 18.456 278.111 18.176C278.631 17.888 279.211 17.744 279.851 17.744C280.491 17.744 281.071 17.888 281.591 18.176C282.111 18.456 282.519 18.856 282.815 19.376C283.119 19.896 283.271 20.496 283.271 21.176C283.271 21.856 283.115 22.456 282.803 22.976C282.499 23.496 282.083 23.9 281.555 24.188C281.035 24.468 280.451 24.608 279.803 24.608ZM279.803 23.144C280.107 23.144 280.391 23.072 280.655 22.928C280.927 22.776 281.143 22.552 281.303 22.256C281.463 21.96 281.543 21.6 281.543 21.176C281.543 20.544 281.375 20.06 281.039 19.724C280.711 19.38 280.307 19.208 279.827 19.208C279.347 19.208 278.943 19.38 278.615 19.724C278.295 20.06 278.135 20.544 278.135 21.176C278.135 21.808 278.291 22.296 278.603 22.64C278.923 22.976 279.323 23.144 279.803 23.144ZM293.72 17.852L291.776 24.5H289.964L288.752 19.856L287.54 24.5H285.716L283.76 17.852H285.464L286.64 22.916L287.912 17.852H289.688L290.936 22.904L292.112 17.852H293.72Z" fill="white"/>
</svg>
