<svg width="102" height="32" viewBox="0 0 102 32" fill="none" xmlns="http://www.w3.org/2000/svg">
<rect width="102" height="32" rx="4" fill="#005695"/>
<path d="M22.1388 15.974C22.4935 16.03 22.8155 16.1747 23.1048 16.408C23.4035 16.6413 23.6368 16.9307 23.8048 17.276C23.9821 17.6213 24.0708 17.99 24.0708 18.382C24.0708 18.8767 23.9448 19.3247 23.6928 19.726C23.4408 20.118 23.0721 20.4307 22.5868 20.664C22.1108 20.888 21.5461 21 20.8928 21H17.2528V11.242H20.7528C21.4155 11.242 21.9801 11.354 22.4468 11.578C22.9135 11.7927 23.2635 12.0867 23.4968 12.46C23.7301 12.8333 23.8468 13.2533 23.8468 13.72C23.8468 14.2987 23.6881 14.7793 23.3708 15.162C23.0628 15.5353 22.6521 15.806 22.1388 15.974ZM18.5268 15.456H20.6688C21.2661 15.456 21.7281 15.316 22.0548 15.036C22.3815 14.756 22.5448 14.3687 22.5448 13.874C22.5448 13.3793 22.3815 12.992 22.0548 12.712C21.7281 12.432 21.2568 12.292 20.6408 12.292H18.5268V15.456ZM20.7808 19.95C21.4155 19.95 21.9101 19.8007 22.2648 19.502C22.6195 19.2033 22.7968 18.788 22.7968 18.256C22.7968 17.7147 22.6101 17.29 22.2368 16.982C21.8635 16.6647 21.3641 16.506 20.7388 16.506H18.5268V19.95H20.7808ZM32.6427 13.328V21H31.3687V19.866C31.1261 20.258 30.7854 20.566 30.3467 20.79C29.9174 21.0047 29.4414 21.112 28.9187 21.112C28.3214 21.112 27.7847 20.9907 27.3087 20.748C26.8327 20.496 26.4547 20.1227 26.1747 19.628C25.9041 19.1333 25.7687 18.5313 25.7687 17.822V13.328H27.0287V17.654C27.0287 18.41 27.2201 18.9933 27.6027 19.404C27.9854 19.8053 28.5081 20.006 29.1707 20.006C29.8521 20.006 30.3887 19.796 30.7807 19.376C31.1727 18.956 31.3687 18.3447 31.3687 17.542V13.328H32.6427ZM36.3478 14.378V18.9C36.3478 19.2733 36.4272 19.5393 36.5858 19.698C36.7445 19.8473 37.0198 19.922 37.4118 19.922H38.3498V21H37.2018C36.4925 21 35.9605 20.8367 35.6058 20.51C35.2512 20.1833 35.0738 19.6467 35.0738 18.9V14.378H34.0798V13.328H35.0738V11.396H36.3478V13.328H38.3498V14.378H36.3478ZM41.4474 14.378V18.9C41.4474 19.2733 41.5268 19.5393 41.6854 19.698C41.8441 19.8473 42.1194 19.922 42.5114 19.922H43.4494V21H42.3014C41.5921 21 41.0601 20.8367 40.7054 20.51C40.3508 20.1833 40.1734 19.6467 40.1734 18.9V14.378H39.1794V13.328H40.1734V11.396H41.4474V13.328H43.4494V14.378H41.4474ZM48.339 21.126C47.6204 21.126 46.967 20.9627 46.379 20.636C45.8004 20.3093 45.343 19.8473 45.007 19.25C44.6804 18.6433 44.517 17.9433 44.517 17.15C44.517 16.366 44.685 15.6753 45.021 15.078C45.3664 14.4713 45.833 14.0093 46.421 13.692C47.009 13.3653 47.667 13.202 48.395 13.202C49.123 13.202 49.781 13.3653 50.369 13.692C50.957 14.0093 51.419 14.4667 51.755 15.064C52.1004 15.6613 52.273 16.3567 52.273 17.15C52.273 17.9433 52.0957 18.6433 51.741 19.25C51.3957 19.8473 50.9244 20.3093 50.327 20.636C49.7297 20.9627 49.067 21.126 48.339 21.126ZM48.339 20.006C48.7964 20.006 49.2257 19.8987 49.627 19.684C50.0284 19.4693 50.3504 19.1473 50.593 18.718C50.845 18.2887 50.971 17.766 50.971 17.15C50.971 16.534 50.8497 16.0113 50.607 15.582C50.3644 15.1527 50.047 14.8353 49.655 14.63C49.263 14.4153 48.8384 14.308 48.381 14.308C47.9144 14.308 47.485 14.4153 47.093 14.63C46.7104 14.8353 46.4024 15.1527 46.169 15.582C45.9357 16.0113 45.819 16.534 45.819 17.15C45.819 17.7753 45.931 18.3027 46.155 18.732C46.3884 19.1613 46.6964 19.4833 47.079 19.698C47.4617 19.9033 47.8817 20.006 48.339 20.006ZM57.6861 13.188C58.6195 13.188 59.3755 13.4727 59.9541 14.042C60.5328 14.602 60.8221 15.414 60.8221 16.478V21H59.5621V16.66C59.5621 15.8947 59.3708 15.3113 58.9881 14.91C58.6055 14.4993 58.0828 14.294 57.4201 14.294C56.7481 14.294 56.2115 14.504 55.8101 14.924C55.4181 15.344 55.2221 15.9553 55.2221 16.758V21H53.9481V13.328H55.2221V14.42C55.4741 14.028 55.8148 13.7247 56.2441 13.51C56.6828 13.2953 57.1635 13.188 57.6861 13.188Z" fill="white"/>
<path d="M81 16L76 16M76 16L71 16M76 16L76 11M76 16L76 21" stroke="white" stroke-linecap="round" stroke-linejoin="round"/>
</svg>
