<svg width="55" height="24" viewBox="0 0 55 24" fill="none" xmlns="http://www.w3.org/2000/svg">
<path d="M55 23V22.5H0V23V23.5H55V23Z" fill="#005695"/>
<path d="M7.91656 11.272C8.5459 11.3893 9.06323 11.704 9.46856 12.216C9.8739 12.728 10.0766 13.3147 10.0766 13.976C10.0766 14.5733 9.92723 15.1013 9.62856 15.56C9.34056 16.008 8.91923 16.36 8.36456 16.616C7.8099 16.872 7.1539 17 6.39656 17H1.58056V5.832H6.18856C6.9459 5.832 7.59656 5.95467 8.14056 6.2C8.69523 6.44533 9.11123 6.78667 9.38856 7.224C9.67656 7.66133 9.82056 8.15733 9.82056 8.712C9.82056 9.36267 9.64456 9.90667 9.29256 10.344C8.95123 10.7813 8.49256 11.0907 7.91656 11.272ZM3.82056 10.44H5.86856C6.4019 10.44 6.81256 10.3227 7.10056 10.088C7.38856 9.84267 7.53256 9.496 7.53256 9.048C7.53256 8.6 7.38856 8.25333 7.10056 8.008C6.81256 7.76267 6.4019 7.64 5.86856 7.64H3.82056V10.44ZM6.07656 15.176C6.62056 15.176 7.0419 15.048 7.34056 14.792C7.6499 14.536 7.80456 14.1733 7.80456 13.704C7.80456 13.224 7.64456 12.8507 7.32456 12.584C7.00456 12.3067 6.57256 12.168 6.02856 12.168H3.82056V15.176H6.07656ZM20.2298 8.136V17H17.9738V15.88C17.6858 16.264 17.3071 16.568 16.8378 16.792C16.3791 17.0053 15.8778 17.112 15.3338 17.112C14.6405 17.112 14.0271 16.968 13.4938 16.68C12.9605 16.3813 12.5391 15.9493 12.2298 15.384C11.9311 14.808 11.7818 14.1253 11.7818 13.336V8.136H14.0218V13.016C14.0218 13.72 14.1978 14.264 14.5498 14.648C14.9018 15.0213 15.3818 15.208 15.9898 15.208C16.6085 15.208 17.0938 15.0213 17.4458 14.648C17.7978 14.264 17.9738 13.72 17.9738 13.016V8.136H20.2298ZM25.0479 9.976V14.264C25.0479 14.5627 25.1173 14.7813 25.2559 14.92C25.4053 15.048 25.6506 15.112 25.9919 15.112H27.0319V17H25.6239C23.7359 17 22.7919 16.0827 22.7919 14.248V9.976H21.7359V8.136H22.7919V5.944H25.0479V8.136H27.0319V9.976H25.0479ZM31.2511 9.976V14.264C31.2511 14.5627 31.3204 14.7813 31.4591 14.92C31.6084 15.048 31.8537 15.112 32.1951 15.112H33.2351V17H31.8271C29.9391 17 28.9951 16.0827 28.9951 14.248V9.976H27.9391V8.136H28.9951V5.944H31.2511V8.136H33.2351V9.976H31.2511ZM38.7822 17.144C37.9289 17.144 37.1609 16.9573 36.4782 16.584C35.7955 16.2 35.2569 15.6613 34.8622 14.968C34.4782 14.2747 34.2862 13.4747 34.2862 12.568C34.2862 11.6613 34.4835 10.8613 34.8782 10.168C35.2835 9.47467 35.8329 8.94133 36.5262 8.568C37.2195 8.184 37.9929 7.992 38.8462 7.992C39.6995 7.992 40.4729 8.184 41.1662 8.568C41.8595 8.94133 42.4035 9.47467 42.7982 10.168C43.2035 10.8613 43.4062 11.6613 43.4062 12.568C43.4062 13.4747 43.1982 14.2747 42.7822 14.968C42.3769 15.6613 41.8222 16.2 41.1182 16.584C40.4249 16.9573 39.6462 17.144 38.7822 17.144ZM38.7822 15.192C39.1875 15.192 39.5662 15.096 39.9182 14.904C40.2809 14.7013 40.5689 14.4027 40.7822 14.008C40.9955 13.6133 41.1022 13.1333 41.1022 12.568C41.1022 11.7253 40.8782 11.08 40.4302 10.632C39.9929 10.1733 39.4542 9.944 38.8142 9.944C38.1742 9.944 37.6355 10.1733 37.1982 10.632C36.7715 11.08 36.5582 11.7253 36.5582 12.568C36.5582 13.4107 36.7662 14.0613 37.1822 14.52C37.6089 14.968 38.1422 15.192 38.7822 15.192ZM49.9613 8.008C51.0173 8.008 51.8706 8.344 52.5213 9.016C53.172 9.67733 53.4973 10.6053 53.4973 11.8V17H51.2573V12.104C51.2573 11.4 51.0813 10.8613 50.7293 10.488C50.3773 10.104 49.8973 9.912 49.2893 9.912C48.6706 9.912 48.18 10.104 47.8173 10.488C47.4653 10.8613 47.2893 11.4 47.2893 12.104V17H45.0493V8.136H47.2893V9.24C47.588 8.856 47.9666 8.55733 48.4253 8.344C48.8946 8.12 49.4066 8.008 49.9613 8.008Z" fill="#005695"/>
</svg>
