<svg width="48" height="21" viewBox="0 0 48 21" fill="none" xmlns="http://www.w3.org/2000/svg">
<path d="M48 20V19.5H0V20V20.5H48V20Z" fill="#151515"/>
<path d="M6.86449 9.988C7.41516 10.0907 7.86783 10.366 8.22249 10.814C8.57716 11.262 8.75449 11.7753 8.75449 12.354C8.75449 12.8767 8.62383 13.3387 8.36249 13.74C8.11049 14.132 7.74183 14.44 7.25649 14.664C6.77116 14.888 6.19716 15 5.53449 15H1.32049V5.228H5.35249C6.01516 5.228 6.58449 5.33533 7.06049 5.55C7.54583 5.76467 7.90983 6.06333 8.15249 6.446C8.40449 6.82867 8.53049 7.26267 8.53049 7.748C8.53049 8.31733 8.37649 8.79333 8.06849 9.176C7.76983 9.55867 7.36849 9.82933 6.86449 9.988ZM3.28049 9.26H5.07249C5.53916 9.26 5.89849 9.15733 6.15049 8.952C6.40249 8.73733 6.52849 8.434 6.52849 8.042C6.52849 7.65 6.40249 7.34667 6.15049 7.132C5.89849 6.91733 5.53916 6.81 5.07249 6.81H3.28049V9.26ZM5.25449 13.404C5.73049 13.404 6.09916 13.292 6.36049 13.068C6.63116 12.844 6.76649 12.5267 6.76649 12.116C6.76649 11.696 6.62649 11.3693 6.34649 11.136C6.06649 10.8933 5.68849 10.772 5.21249 10.772H3.28049V13.404H5.25449ZM17.6386 7.244V15H15.6646V14.02C15.4126 14.356 15.0813 14.622 14.6706 14.818C14.2693 15.0047 13.8306 15.098 13.3546 15.098C12.7479 15.098 12.2113 14.972 11.7446 14.72C11.2779 14.4587 10.9093 14.0807 10.6386 13.586C10.3773 13.082 10.2466 12.4847 10.2466 11.794V7.244H12.2066V11.514C12.2066 12.13 12.3606 12.606 12.6686 12.942C12.9766 13.2687 13.3966 13.432 13.9286 13.432C14.4699 13.432 14.8946 13.2687 15.2026 12.942C15.5106 12.606 15.6646 12.13 15.6646 11.514V7.244H17.6386ZM21.8544 8.854V12.606C21.8544 12.8673 21.9151 13.0587 22.0364 13.18C22.1671 13.292 22.3818 13.348 22.6804 13.348H23.5904V15H22.3584C20.7064 15 19.8804 14.1973 19.8804 12.592V8.854H18.9564V7.244H19.8804V5.326H21.8544V7.244H23.5904V8.854H21.8544ZM27.2822 8.854V12.606C27.2822 12.8673 27.3428 13.0587 27.4642 13.18C27.5948 13.292 27.8095 13.348 28.1082 13.348H29.0182V15H27.7862C26.1342 15 25.3082 14.1973 25.3082 12.592V8.854H24.3842V7.244H25.3082V5.326H27.2822V7.244H29.0182V8.854H27.2822ZM33.8719 15.126C33.1252 15.126 32.4532 14.9627 31.8559 14.636C31.2586 14.3 30.7872 13.8287 30.4419 13.222C30.1059 12.6153 29.9379 11.9153 29.9379 11.122C29.9379 10.3287 30.1106 9.62867 30.4559 9.022C30.8106 8.41533 31.2912 7.94867 31.8979 7.622C32.5046 7.286 33.1812 7.118 33.9279 7.118C34.6746 7.118 35.3512 7.286 35.9579 7.622C36.5646 7.94867 37.0406 8.41533 37.3859 9.022C37.7406 9.62867 37.9179 10.3287 37.9179 11.122C37.9179 11.9153 37.7359 12.6153 37.3719 13.222C37.0172 13.8287 36.5319 14.3 35.9159 14.636C35.3092 14.9627 34.6279 15.126 33.8719 15.126ZM33.8719 13.418C34.2266 13.418 34.5579 13.334 34.8659 13.166C35.1832 12.9887 35.4352 12.7273 35.6219 12.382C35.8086 12.0367 35.9019 11.6167 35.9019 11.122C35.9019 10.3847 35.7059 9.82 35.3139 9.428C34.9312 9.02667 34.4599 8.826 33.8999 8.826C33.3399 8.826 32.8686 9.02667 32.4859 9.428C32.1126 9.82 31.9259 10.3847 31.9259 11.122C31.9259 11.8593 32.1079 12.4287 32.4719 12.83C32.8452 13.222 33.3119 13.418 33.8719 13.418ZM43.6536 7.132C44.5776 7.132 45.3243 7.426 45.8936 8.014C46.463 8.59267 46.7476 9.40467 46.7476 10.45V15H44.7876V10.716C44.7876 10.1 44.6336 9.62867 44.3256 9.302C44.0176 8.966 43.5976 8.798 43.0656 8.798C42.5243 8.798 42.095 8.966 41.7776 9.302C41.4696 9.62867 41.3156 10.1 41.3156 10.716V15H39.3556V7.244H41.3156V8.21C41.577 7.874 41.9083 7.61267 42.3096 7.426C42.7203 7.23 43.1683 7.132 43.6536 7.132Z" fill="#151515"/>
</svg>
