<svg width="122" height="40" viewBox="0 0 122 40" fill="none" xmlns="http://www.w3.org/2000/svg">
<rect x="0.5" y="0.5" width="121" height="39" rx="3.5" fill="white"/>
<rect x="0.5" y="0.5" width="121" height="39" rx="3.5" stroke="#A7A9B4"/>
<path d="M39 20L34 20M34 20L29 20M34 20L34 15M34 20L34 25" stroke="#151515" stroke-linecap="round" stroke-linejoin="round"/>
<path d="M58.1388 19.974C58.4935 20.03 58.8155 20.1747 59.1048 20.408C59.4035 20.6413 59.6368 20.9307 59.8048 21.276C59.9821 21.6213 60.0708 21.99 60.0708 22.382C60.0708 22.8767 59.9448 23.3247 59.6928 23.726C59.4408 24.118 59.0721 24.4307 58.5868 24.664C58.1108 24.888 57.5461 25 56.8928 25H53.2528V15.242H56.7528C57.4155 15.242 57.9801 15.354 58.4468 15.578C58.9135 15.7927 59.2635 16.0867 59.4968 16.46C59.7301 16.8333 59.8468 17.2533 59.8468 17.72C59.8468 18.2987 59.6881 18.7793 59.3708 19.162C59.0628 19.5353 58.6521 19.806 58.1388 19.974ZM54.5268 19.456H56.6688C57.2661 19.456 57.7281 19.316 58.0548 19.036C58.3815 18.756 58.5448 18.3687 58.5448 17.874C58.5448 17.3793 58.3815 16.992 58.0548 16.712C57.7281 16.432 57.2568 16.292 56.6408 16.292H54.5268V19.456ZM56.7808 23.95C57.4155 23.95 57.9101 23.8007 58.2648 23.502C58.6195 23.2033 58.7968 22.788 58.7968 22.256C58.7968 21.7147 58.6101 21.29 58.2368 20.982C57.8635 20.6647 57.3641 20.506 56.7388 20.506H54.5268V23.95H56.7808ZM68.6427 17.328V25H67.3687V23.866C67.1261 24.258 66.7854 24.566 66.3467 24.79C65.9174 25.0047 65.4414 25.112 64.9187 25.112C64.3214 25.112 63.7847 24.9907 63.3087 24.748C62.8327 24.496 62.4547 24.1227 62.1747 23.628C61.9041 23.1333 61.7687 22.5313 61.7687 21.822V17.328H63.0287V21.654C63.0287 22.41 63.2201 22.9933 63.6027 23.404C63.9854 23.8053 64.5081 24.006 65.1707 24.006C65.8521 24.006 66.3887 23.796 66.7807 23.376C67.1727 22.956 67.3687 22.3447 67.3687 21.542V17.328H68.6427ZM72.3478 18.378V22.9C72.3478 23.2733 72.4272 23.5393 72.5858 23.698C72.7445 23.8473 73.0198 23.922 73.4118 23.922H74.3498V25H73.2018C72.4925 25 71.9605 24.8367 71.6058 24.51C71.2512 24.1833 71.0738 23.6467 71.0738 22.9V18.378H70.0798V17.328H71.0738V15.396H72.3478V17.328H74.3498V18.378H72.3478ZM77.4474 18.378V22.9C77.4474 23.2733 77.5268 23.5393 77.6854 23.698C77.8441 23.8473 78.1194 23.922 78.5114 23.922H79.4494V25H78.3014C77.5921 25 77.0601 24.8367 76.7054 24.51C76.3508 24.1833 76.1734 23.6467 76.1734 22.9V18.378H75.1794V17.328H76.1734V15.396H77.4474V17.328H79.4494V18.378H77.4474ZM84.339 25.126C83.6204 25.126 82.967 24.9627 82.379 24.636C81.8004 24.3093 81.343 23.8473 81.007 23.25C80.6804 22.6433 80.517 21.9433 80.517 21.15C80.517 20.366 80.685 19.6753 81.021 19.078C81.3664 18.4713 81.833 18.0093 82.421 17.692C83.009 17.3653 83.667 17.202 84.395 17.202C85.123 17.202 85.781 17.3653 86.369 17.692C86.957 18.0093 87.419 18.4667 87.755 19.064C88.1004 19.6613 88.273 20.3567 88.273 21.15C88.273 21.9433 88.0957 22.6433 87.741 23.25C87.3957 23.8473 86.9244 24.3093 86.327 24.636C85.7297 24.9627 85.067 25.126 84.339 25.126ZM84.339 24.006C84.7964 24.006 85.2257 23.8987 85.627 23.684C86.0284 23.4693 86.3504 23.1473 86.593 22.718C86.845 22.2887 86.971 21.766 86.971 21.15C86.971 20.534 86.8497 20.0113 86.607 19.582C86.3644 19.1527 86.047 18.8353 85.655 18.63C85.263 18.4153 84.8384 18.308 84.381 18.308C83.9144 18.308 83.485 18.4153 83.093 18.63C82.7104 18.8353 82.4024 19.1527 82.169 19.582C81.9357 20.0113 81.819 20.534 81.819 21.15C81.819 21.7753 81.931 22.3027 82.155 22.732C82.3884 23.1613 82.6964 23.4833 83.079 23.698C83.4617 23.9033 83.8817 24.006 84.339 24.006ZM93.6861 17.188C94.6195 17.188 95.3755 17.4727 95.9541 18.042C96.5328 18.602 96.8221 19.414 96.8221 20.478V25H95.5621V20.66C95.5621 19.8947 95.3708 19.3113 94.9881 18.91C94.6055 18.4993 94.0828 18.294 93.4201 18.294C92.7481 18.294 92.2115 18.504 91.8101 18.924C91.4181 19.344 91.2221 19.9553 91.2221 20.758V25H89.9481V17.328H91.2221V18.42C91.4741 18.028 91.8148 17.7247 92.2441 17.51C92.6828 17.2953 93.1635 17.188 93.6861 17.188Z" fill="#151515"/>
</svg>
