<svg width="122" height="40" viewBox="0 0 122 40" fill="none" xmlns="http://www.w3.org/2000/svg">
<rect x="0.5" y="0.5" width="121" height="39" rx="3.5" fill="white"/>
<rect x="0.5" y="0.5" width="121" height="39" rx="3.5" stroke="#A7A9B4"/>
<path d="M30.1388 19.974C30.4935 20.03 30.8155 20.1747 31.1048 20.408C31.4035 20.6413 31.6368 20.9307 31.8048 21.276C31.9821 21.6213 32.0708 21.99 32.0708 22.382C32.0708 22.8767 31.9448 23.3247 31.6928 23.726C31.4408 24.118 31.0721 24.4307 30.5868 24.664C30.1108 24.888 29.5461 25 28.8928 25H25.2528V15.242H28.7528C29.4155 15.242 29.9801 15.354 30.4468 15.578C30.9135 15.7927 31.2635 16.0867 31.4968 16.46C31.7301 16.8333 31.8468 17.2533 31.8468 17.72C31.8468 18.2987 31.6881 18.7793 31.3708 19.162C31.0628 19.5353 30.6521 19.806 30.1388 19.974ZM26.5268 19.456H28.6688C29.2661 19.456 29.7281 19.316 30.0548 19.036C30.3815 18.756 30.5448 18.3687 30.5448 17.874C30.5448 17.3793 30.3815 16.992 30.0548 16.712C29.7281 16.432 29.2568 16.292 28.6408 16.292H26.5268V19.456ZM28.7808 23.95C29.4155 23.95 29.9101 23.8007 30.2648 23.502C30.6195 23.2033 30.7968 22.788 30.7968 22.256C30.7968 21.7147 30.6101 21.29 30.2368 20.982C29.8635 20.6647 29.3641 20.506 28.7388 20.506H26.5268V23.95H28.7808ZM40.6427 17.328V25H39.3687V23.866C39.1261 24.258 38.7854 24.566 38.3467 24.79C37.9174 25.0047 37.4414 25.112 36.9187 25.112C36.3214 25.112 35.7847 24.9907 35.3087 24.748C34.8327 24.496 34.4547 24.1227 34.1747 23.628C33.9041 23.1333 33.7687 22.5313 33.7687 21.822V17.328H35.0287V21.654C35.0287 22.41 35.2201 22.9933 35.6027 23.404C35.9854 23.8053 36.5081 24.006 37.1707 24.006C37.8521 24.006 38.3887 23.796 38.7807 23.376C39.1727 22.956 39.3687 22.3447 39.3687 21.542V17.328H40.6427ZM44.3478 18.378V22.9C44.3478 23.2733 44.4272 23.5393 44.5858 23.698C44.7445 23.8473 45.0198 23.922 45.4118 23.922H46.3498V25H45.2018C44.4925 25 43.9605 24.8367 43.6058 24.51C43.2512 24.1833 43.0738 23.6467 43.0738 22.9V18.378H42.0798V17.328H43.0738V15.396H44.3478V17.328H46.3498V18.378H44.3478ZM49.4474 18.378V22.9C49.4474 23.2733 49.5268 23.5393 49.6854 23.698C49.8441 23.8473 50.1194 23.922 50.5114 23.922H51.4494V25H50.3014C49.5921 25 49.0601 24.8367 48.7054 24.51C48.3508 24.1833 48.1734 23.6467 48.1734 22.9V18.378H47.1794V17.328H48.1734V15.396H49.4474V17.328H51.4494V18.378H49.4474ZM56.339 25.126C55.6204 25.126 54.967 24.9627 54.379 24.636C53.8004 24.3093 53.343 23.8473 53.007 23.25C52.6804 22.6433 52.517 21.9433 52.517 21.15C52.517 20.366 52.685 19.6753 53.021 19.078C53.3664 18.4713 53.833 18.0093 54.421 17.692C55.009 17.3653 55.667 17.202 56.395 17.202C57.123 17.202 57.781 17.3653 58.369 17.692C58.957 18.0093 59.419 18.4667 59.755 19.064C60.1004 19.6613 60.273 20.3567 60.273 21.15C60.273 21.9433 60.0957 22.6433 59.741 23.25C59.3957 23.8473 58.9244 24.3093 58.327 24.636C57.7297 24.9627 57.067 25.126 56.339 25.126ZM56.339 24.006C56.7964 24.006 57.2257 23.8987 57.627 23.684C58.0284 23.4693 58.3504 23.1473 58.593 22.718C58.845 22.2887 58.971 21.766 58.971 21.15C58.971 20.534 58.8497 20.0113 58.607 19.582C58.3644 19.1527 58.047 18.8353 57.655 18.63C57.263 18.4153 56.8384 18.308 56.381 18.308C55.9144 18.308 55.485 18.4153 55.093 18.63C54.7104 18.8353 54.4024 19.1527 54.169 19.582C53.9357 20.0113 53.819 20.534 53.819 21.15C53.819 21.7753 53.931 22.3027 54.155 22.732C54.3884 23.1613 54.6964 23.4833 55.079 23.698C55.4617 23.9033 55.8817 24.006 56.339 24.006ZM65.6861 17.188C66.6195 17.188 67.3755 17.4727 67.9541 18.042C68.5328 18.602 68.8221 19.414 68.8221 20.478V25H67.5621V20.66C67.5621 19.8947 67.3708 19.3113 66.9881 18.91C66.6055 18.4993 66.0828 18.294 65.4201 18.294C64.7481 18.294 64.2115 18.504 63.8101 18.924C63.4181 19.344 63.2221 19.9553 63.2221 20.758V25H61.9481V17.328H63.2221V18.42C63.4741 18.028 63.8148 17.7247 64.2441 17.51C64.6828 17.2953 65.1635 17.188 65.6861 17.188Z" fill="#151515"/>
<path d="M93 20L88 20M88 20L83 20M88 20L88 15M88 20L88 25" stroke="#151515" stroke-linecap="round" stroke-linejoin="round"/>
</svg>
