<svg width="102" height="32" viewBox="0 0 102 32" fill="none" xmlns="http://www.w3.org/2000/svg">
<rect width="102" height="32" rx="4" fill="#005695"/>
<path d="M31 16L26 16M26 16L21 16M26 16L26 11M26 16L26 21" stroke="white" stroke-linecap="round" stroke-linejoin="round"/>
<path d="M46.1388 15.974C46.4935 16.03 46.8155 16.1747 47.1048 16.408C47.4035 16.6413 47.6368 16.9307 47.8048 17.276C47.9821 17.6213 48.0708 17.99 48.0708 18.382C48.0708 18.8767 47.9448 19.3247 47.6928 19.726C47.4408 20.118 47.0721 20.4307 46.5868 20.664C46.1108 20.888 45.5461 21 44.8928 21H41.2528V11.242H44.7528C45.4155 11.242 45.9801 11.354 46.4468 11.578C46.9135 11.7927 47.2635 12.0867 47.4968 12.46C47.7301 12.8333 47.8468 13.2533 47.8468 13.72C47.8468 14.2987 47.6881 14.7793 47.3708 15.162C47.0628 15.5353 46.6521 15.806 46.1388 15.974ZM42.5268 15.456H44.6688C45.2661 15.456 45.7281 15.316 46.0548 15.036C46.3815 14.756 46.5448 14.3687 46.5448 13.874C46.5448 13.3793 46.3815 12.992 46.0548 12.712C45.7281 12.432 45.2568 12.292 44.6408 12.292H42.5268V15.456ZM44.7808 19.95C45.4155 19.95 45.9101 19.8007 46.2648 19.502C46.6195 19.2033 46.7968 18.788 46.7968 18.256C46.7968 17.7147 46.6101 17.29 46.2368 16.982C45.8635 16.6647 45.3641 16.506 44.7388 16.506H42.5268V19.95H44.7808ZM56.6427 13.328V21H55.3687V19.866C55.1261 20.258 54.7854 20.566 54.3467 20.79C53.9174 21.0047 53.4414 21.112 52.9187 21.112C52.3214 21.112 51.7847 20.9907 51.3087 20.748C50.8327 20.496 50.4547 20.1227 50.1747 19.628C49.9041 19.1333 49.7687 18.5313 49.7687 17.822V13.328H51.0287V17.654C51.0287 18.41 51.2201 18.9933 51.6027 19.404C51.9854 19.8053 52.5081 20.006 53.1707 20.006C53.8521 20.006 54.3887 19.796 54.7807 19.376C55.1727 18.956 55.3687 18.3447 55.3687 17.542V13.328H56.6427ZM60.3478 14.378V18.9C60.3478 19.2733 60.4272 19.5393 60.5858 19.698C60.7445 19.8473 61.0198 19.922 61.4118 19.922H62.3498V21H61.2018C60.4925 21 59.9605 20.8367 59.6058 20.51C59.2512 20.1833 59.0738 19.6467 59.0738 18.9V14.378H58.0798V13.328H59.0738V11.396H60.3478V13.328H62.3498V14.378H60.3478ZM65.4474 14.378V18.9C65.4474 19.2733 65.5268 19.5393 65.6854 19.698C65.8441 19.8473 66.1194 19.922 66.5114 19.922H67.4494V21H66.3014C65.5921 21 65.0601 20.8367 64.7054 20.51C64.3508 20.1833 64.1734 19.6467 64.1734 18.9V14.378H63.1794V13.328H64.1734V11.396H65.4474V13.328H67.4494V14.378H65.4474ZM72.339 21.126C71.6204 21.126 70.967 20.9627 70.379 20.636C69.8004 20.3093 69.343 19.8473 69.007 19.25C68.6804 18.6433 68.517 17.9433 68.517 17.15C68.517 16.366 68.685 15.6753 69.021 15.078C69.3664 14.4713 69.833 14.0093 70.421 13.692C71.009 13.3653 71.667 13.202 72.395 13.202C73.123 13.202 73.781 13.3653 74.369 13.692C74.957 14.0093 75.419 14.4667 75.755 15.064C76.1004 15.6613 76.273 16.3567 76.273 17.15C76.273 17.9433 76.0957 18.6433 75.741 19.25C75.3957 19.8473 74.9244 20.3093 74.327 20.636C73.7297 20.9627 73.067 21.126 72.339 21.126ZM72.339 20.006C72.7964 20.006 73.2257 19.8987 73.627 19.684C74.0284 19.4693 74.3504 19.1473 74.593 18.718C74.845 18.2887 74.971 17.766 74.971 17.15C74.971 16.534 74.8497 16.0113 74.607 15.582C74.3644 15.1527 74.047 14.8353 73.655 14.63C73.263 14.4153 72.8384 14.308 72.381 14.308C71.9144 14.308 71.485 14.4153 71.093 14.63C70.7104 14.8353 70.4024 15.1527 70.169 15.582C69.9357 16.0113 69.819 16.534 69.819 17.15C69.819 17.7753 69.931 18.3027 70.155 18.732C70.3884 19.1613 70.6964 19.4833 71.079 19.698C71.4617 19.9033 71.8817 20.006 72.339 20.006ZM81.6861 13.188C82.6195 13.188 83.3755 13.4727 83.9541 14.042C84.5328 14.602 84.8221 15.414 84.8221 16.478V21H83.5621V16.66C83.5621 15.8947 83.3708 15.3113 82.9881 14.91C82.6055 14.4993 82.0828 14.294 81.4201 14.294C80.7481 14.294 80.2115 14.504 79.8101 14.924C79.4181 15.344 79.2221 15.9553 79.2221 16.758V21H77.9481V13.328H79.2221V14.42C79.4741 14.028 79.8148 13.7247 80.2441 13.51C80.6828 13.2953 81.1635 13.188 81.6861 13.188Z" fill="white"/>
</svg>
